<?xml version="1.0" encoding="utf-8"?>
<!-- Generator: Adobe Illustrator 23.0.1, SVG Export Plug-In . SVG Version: 6.00 Build 0)  -->
<svg version="1.1" id="图层_1" xmlns="http://www.w3.org/2000/svg" xmlns:xlink="http://www.w3.org/1999/xlink" x="0px" y="0px"
	 viewBox="0 0 363.6 363.6" style="enable-background:new 0 0 363.6 363.6;" xml:space="preserve">
<style type="text/css">
	.st0{fill:#47A4D1;}
	.st1{fill:#82C8EF;}
	.st2{fill:#0E8AB7;}
	.st3{fill:#EEEEEF;}
	.st4{fill:#FEFEFE;}
	.st5{fill:#D3D3D4;}
	.st6{fill:#3D8AB1;}
	.st7{fill:#3AA7D1;}
	.st8{fill:#347595;}
	.st9{fill:#FFF582;}
	.st10{fill:#E4C2DB;}
	.st11{fill:#FFF247;}
	.st12{fill:#D1BBDA;}
	.st13{fill:#CE95C0;}
	.st14{fill:#F6AD02;}
	.st15{fill:#F9BF00;}
	.st16{fill:#F19015;}
	.st17{fill:#4DBDC7;}
	.st18{fill:#86CCC9;}
	.st19{fill:#0EB4C5;}
	.st20{fill:#FFFABD;}
	.st21{fill:#FEF3DF;}
	.st22{fill:#F0E7D4;}
	.st23{fill:#DAD2C1;}
	.st24{fill:#6392A6;}
	.st25{fill:#6AAEC0;}
	.st26{fill:#568092;}
	.st27{fill:#7DCBDB;}
	.st28{fill:#F9BB00;}
	.st29{fill:#7BC0B1;}
	.st30{fill:#9ECBB2;}
	.st31{fill:#5BB7B0;}
	.st32{fill:#FFEC70;}
	.st33{fill:#FFEFA2;}
	.st34{fill:#72A8BF;}
	.st35{fill:#E7BEC3;}
	.st36{fill:#D599AF;}
	.st37{fill:#62C3D0;}
	.st38{fill:#9CC7D4;}
	.st39{fill:#D8B9C3;}
	.st40{fill:#4E92AB;}
	.st41{fill:#FFEA3C;}
	.st42{fill:#F29413;}
</style>
<g id="图层_x0020_1">
	<g id="_2580719796352">
		<polygon class="st0" points="151.4,309.1 151.4,345.4 182.9,363.6 182.9,327.2 		"/>
		<polygon class="st1" points="151.4,309.1 182.9,290.9 214.4,309.1 182.9,327.2 		"/>
		<polygon class="st2" points="182.9,363.6 182.9,327.2 214.4,309.1 214.4,345.4 		"/>
		<polygon class="st3" points="119.9,109.1 119.9,145.4 151.4,163.6 151.4,127.3 		"/>
		<polygon class="st4" points="119.9,109.1 151.4,90.9 182.9,109.1 151.4,127.3 		"/>
		<polygon class="st5" points="151.4,163.6 151.4,127.3 182.9,109.1 182.9,145.4 		"/>
		<polygon class="st3" points="119.9,72.7 119.9,109.1 151.4,127.3 151.4,90.9 		"/>
		<polygon class="st4" points="119.9,72.7 151.4,54.5 182.9,72.7 151.4,90.9 		"/>
		<polygon class="st5" points="151.4,127.3 151.4,90.9 182.9,72.7 182.9,109.1 		"/>
		<polygon class="st6" points="182.9,72.7 182.9,109.1 214.4,127.3 214.4,90.9 		"/>
		<polygon class="st7" points="182.9,72.7 214.4,54.5 245.9,72.7 214.4,90.9 		"/>
		<polygon class="st8" points="214.4,127.3 214.4,90.9 245.9,72.7 245.9,109.1 		"/>
		<polygon class="st9" points="277.3,236.3 277.3,272.7 308.8,290.9 308.8,254.5 		"/>
		<polygon class="st10" points="277.3,236.3 308.8,218.2 340.3,236.3 308.8,254.5 		"/>
		<polygon class="st11" points="308.8,290.9 308.8,254.5 340.3,236.3 340.3,272.7 		"/>
		<polygon class="st6" points="151.4,90.9 151.4,127.3 182.9,145.4 182.9,109.1 		"/>
		<polygon class="st7" points="151.4,90.9 182.9,72.7 214.4,90.9 182.9,109.1 		"/>
		<polygon class="st8" points="182.9,145.4 182.9,109.1 214.4,90.9 214.4,127.3 		"/>
		<polygon class="st12" points="56.9,218.2 56.9,254.5 88.4,272.7 88.4,236.3 		"/>
		<polygon class="st10" points="56.9,218.2 119.9,181.8 151.4,200 88.4,236.3 		"/>
		<polygon class="st13" points="88.4,272.7 88.4,236.3 151.4,200 151.4,236.3 		"/>
		<polygon class="st14" points="25.4,127.3 25.4,163.6 88.4,200 88.4,163.6 		"/>
		<polygon class="st15" points="25.4,127.3 56.9,109.1 119.9,145.4 88.4,163.6 		"/>
		<polygon class="st16" points="88.4,200 88.4,163.6 119.9,145.4 119.9,181.8 		"/>
		<polygon class="st1" points="182.9,218.2 214.4,200 245.8,218.2 214.4,236.3 		"/>
		<polygon class="st11" points="214.4,272.7 214.4,236.3 245.8,218.2 245.8,254.5 		"/>
		<polygon class="st9" points="182.9,218.2 182.9,254.5 214.4,272.7 214.4,236.3 		"/>
		<polygon class="st17" points="88.4,163.6 88.4,200 119.9,218.2 119.9,181.8 		"/>
		<polygon class="st18" points="88.4,163.6 119.9,145.4 151.4,163.6 119.9,181.8 		"/>
		<polygon class="st2" points="119.9,218.2 119.9,181.8 151.4,163.6 151.4,200 		"/>
		<polygon class="st3" points="214.4,127.3 214.4,163.6 245.8,181.8 245.8,145.4 		"/>
		<polygon class="st4" points="214.4,127.3 245.8,109.1 277.3,127.3 245.8,145.4 		"/>
		<polygon class="st5" points="245.8,181.8 245.8,145.4 277.3,127.3 277.3,163.6 		"/>
		<polygon class="st3" points="214.4,272.7 214.4,309.1 245.8,327.2 245.8,290.9 		"/>
		<polygon class="st4" points="214.4,272.7 245.8,254.5 277.3,272.7 245.8,290.9 		"/>
		<polygon class="st5" points="245.8,327.2 245.8,290.9 277.3,272.7 277.3,309.1 		"/>
		<polygon class="st3" points="245.8,72.7 245.8,109.1 277.3,127.3 277.3,90.9 		"/>
		<polygon class="st4" points="245.8,72.7 277.3,54.5 308.8,72.7 277.3,90.9 		"/>
		<polygon class="st5" points="277.3,127.3 277.3,90.9 308.8,72.7 308.8,109.1 		"/>
		<polygon class="st3" points="214.4,90.9 214.4,127.3 245.9,145.4 245.9,109.1 		"/>
		<polygon class="st4" points="214.4,90.9 245.9,72.7 277.3,90.9 245.9,109.1 		"/>
		<polygon class="st5" points="245.9,145.4 245.9,109.1 277.3,90.9 277.3,127.3 		"/>
		<polygon class="st0" points="151.4,272.7 151.4,309.1 182.9,327.2 182.9,290.9 		"/>
		<polygon class="st1" points="151.4,272.7 182.9,254.5 214.4,272.7 182.9,290.9 		"/>
		<polygon class="st2" points="182.9,327.2 182.9,290.9 214.4,272.7 214.4,309.1 		"/>
		<polygon class="st0" points="277.3,200 277.3,236.3 308.8,254.5 308.8,218.2 		"/>
		<polygon class="st1" points="277.3,200 308.8,181.8 340.3,200 308.8,218.2 		"/>
		<polygon class="st2" points="308.8,254.5 308.8,218.2 340.3,200 340.3,236.3 		"/>
		<polygon class="st14" points="277.3,90.9 277.3,127.3 308.8,145.4 308.8,109.1 		"/>
		<polygon class="st15" points="277.3,90.9 308.8,72.7 340.3,90.9 308.8,109.1 		"/>
		<polygon class="st16" points="308.8,145.4 308.8,109.1 340.3,90.9 340.3,127.3 		"/>
		<polygon class="st17" points="151.4,18.2 151.4,54.5 182.9,72.7 182.9,36.4 		"/>
		<polygon class="st18" points="151.4,18.2 182.9,0 214.4,18.2 182.9,36.4 		"/>
		<polygon class="st19" points="182.9,72.7 182.9,36.4 214.4,18.2 214.4,54.5 		"/>
		<polygon class="st12" points="25.4,236.3 25.4,272.7 56.9,290.9 56.9,254.5 		"/>
		<polygon class="st10" points="25.4,236.3 56.9,218.2 88.4,236.3 56.9,254.5 		"/>
		<polygon class="st13" points="56.9,290.9 56.9,254.5 88.4,236.3 88.4,272.7 		"/>
		<polygon class="st12" points="88.4,236.3 88.4,272.7 119.9,290.9 119.9,254.5 		"/>
		<polygon class="st10" points="88.4,236.3 119.9,218.2 151.4,236.3 119.9,254.5 		"/>
		<polygon class="st13" points="119.9,290.9 119.9,254.5 151.4,236.3 151.4,272.7 		"/>
		<polygon class="st12" points="56.9,254.5 56.9,290.9 88.4,309.1 88.4,272.7 		"/>
		<polygon class="st10" points="56.9,254.5 88.4,236.3 119.9,254.5 88.4,272.7 		"/>
		<polygon class="st13" points="88.4,309.1 88.4,272.7 119.9,254.5 119.9,290.9 		"/>
		<polygon class="st17" points="25.4,200 25.4,236.3 56.9,254.5 56.9,218.2 		"/>
		<polygon class="st18" points="25.4,200 56.9,181.8 88.4,200 56.9,218.2 		"/>
		<polygon class="st19" points="56.9,254.5 56.9,218.2 88.4,200 88.4,236.3 		"/>
		<polygon class="st6" points="25.4,90.9 25.4,127.3 56.9,145.4 56.9,109.1 		"/>
		<polygon class="st7" points="25.4,90.9 88.4,54.5 119.9,72.7 56.9,109.1 		"/>
		<polygon class="st8" points="56.9,145.4 56.9,109.1 119.9,72.7 119.9,109.1 		"/>
		<polygon class="st12" points="245.8,218.2 245.8,254.5 277.3,272.7 277.3,236.3 		"/>
		<polygon class="st10" points="245.8,218.2 277.3,200 308.8,218.2 277.3,236.3 		"/>
		<polygon class="st13" points="277.3,272.7 277.3,236.3 308.8,218.2 308.8,254.5 		"/>
		<polygon class="st12" points="245.8,181.8 245.8,218.2 277.3,236.3 277.3,200 		"/>
		<polygon class="st10" points="245.8,181.8 277.3,163.6 308.8,181.8 277.3,200 		"/>
		<polygon class="st13" points="277.3,236.3 277.3,200 308.8,181.8 308.8,218.2 		"/>
		<polygon class="st12" points="245.8,145.4 245.8,181.8 277.3,200 277.3,163.6 		"/>
		<polygon class="st10" points="245.8,145.4 277.3,127.3 308.8,145.4 277.3,163.6 		"/>
		<polygon class="st13" points="277.3,200 277.3,163.6 308.8,145.4 308.8,181.8 		"/>
		<polygon class="st17" points="56.9,181.8 56.9,218.2 88.4,236.3 88.4,200 		"/>
		<polygon class="st18" points="56.9,181.8 88.4,163.6 119.9,181.8 88.4,200 		"/>
		<polygon class="st19" points="88.4,236.3 88.4,200 119.9,181.8 119.9,218.2 		"/>
		<polygon class="st9" points="214.4,127.3 214.4,163.6 245.9,181.8 245.9,145.4 		"/>
		<polygon class="st20" points="214.4,127.3 245.9,109.1 277.3,127.3 245.9,145.4 		"/>
		<polygon class="st11" points="245.9,181.8 245.9,145.4 277.3,127.3 277.3,163.6 		"/>
		<g>
			<path class="st21" d="M119.9,145.4l-31.5-18.2l31.5-18.2V145.4z M151.4,127.3l-31.5-18.2L151.4,127.3L151.4,127.3L151.4,127.3
				L151.4,127.3L151.4,127.3z M214.4,127.3L214.4,127.3L214.4,127.3L214.4,127.3L214.4,127.3L214.4,127.3z M56.9,109.1L56.9,109.1
				l63-36.4l0,0L56.9,109.1L56.9,109.1z M214.4,90.9l-31.5-18.2L214.4,90.9l23.1-13.3l-5.6,3.2L214.4,90.9L214.4,90.9L214.4,90.9z
				 M25.4,90.9L25.4,90.9L182.9,0l94.5,54.5l-31.5,18.2l-31.5-18.2l-31.5,18.2v0l0,0v0l31.5-18.2l0-36.4l-31.5,18.2v0l31.5-18.2
				L182.9,0l-31.5,18.2v36.4l-31.5,18.2v0L88.4,54.5L25.4,90.9L25.4,90.9L25.4,90.9z M151.4,90.9l-31.5-18.2L151.4,90.9l31.5-18.2
				L151.4,90.9L151.4,90.9L151.4,90.9z M277.3,90.9L277.3,90.9l31.5-18.2L277.3,90.9z M323.8,81.4l-15-8.7l0,0v0L323.8,81.4
				L323.8,81.4z M245.9,72.7L245.9,72.7L245.9,72.7z"/>
		</g>
		<polygon class="st22" points="119.9,145.4 119.9,145.4 119.9,109.1 119.9,109.1 151.4,127.3 151.4,127.3 		"/>
		<polygon class="st21" points="151.4,127.3 119.9,109.1 119.9,109.1 119.9,109.1 151.4,127.3 151.4,127.3 		"/>
		<polygon class="st23" points="151.4,127.3 151.4,127.3 151.4,127.3 151.4,127.3 151.4,127.3 		"/>
		<polygon class="st22" points="151.4,127.3 119.9,109.1 119.9,72.7 119.9,72.7 119.9,72.7 119.9,72.7 119.9,72.7 151.4,90.9 
			151.4,90.9 151.4,90.9 151.4,90.9 		"/>
		<polygon class="st21" points="151.4,90.9 119.9,72.7 151.4,54.5 151.4,54.5 182.9,72.7 		"/>
		<polygon class="st23" points="151.4,90.9 151.4,90.9 182.9,72.7 182.9,72.7 182.9,72.7 182.9,72.7 182.9,72.7 		"/>
		<polygon class="st24" points="214.4,127.3 214.4,127.3 214.4,90.9 182.9,109.1 214.4,90.9 182.9,72.7 182.9,72.7 214.4,90.9 
			214.4,127.3 		"/>
		<polygon class="st25" points="214.4,90.9 182.9,72.7 214.4,54.5 245.8,72.7 245.8,72.7 237.4,77.6 		"/>
		<path class="st26" d="M214.4,127.3l0-36.4l17.5-10.1l-17.5,10.1L214.4,127.3L214.4,127.3z M245.8,109.1l-31.5-18.2L245.8,109.1
			L245.8,109.1L245.8,109.1z"/>
		<polygon class="st24" points="151.4,127.3 151.4,127.3 151.4,90.9 182.9,109.1 182.9,109.1 182.9,109.1 		"/>
		<polygon class="st25" points="182.9,109.1 151.4,90.9 151.4,90.9 182.9,72.7 182.9,72.7 182.9,72.7 214.4,90.9 182.9,109.1 		"/>
		<polygon class="st26" points="214.4,127.3 182.9,109.1 182.9,109.1 182.9,109.1 182.9,109.1 214.4,90.9 214.4,127.3 		"/>
		<polygon class="st27" points="182.9,181.8 119.9,145.4 151.4,127.3 151.4,127.3 182.9,109.1 182.9,109.1 214.4,127.3 214.4,127.3 
			214.4,127.3 214.4,163.6 		"/>
		<polygon class="st22" points="214.4,163.6 214.4,127.3 214.4,127.3 214.4,163.6 		"/>
		<polygon class="st21" points="214.4,127.3 214.4,127.3 214.4,127.3 214.4,127.3 214.4,127.3 214.4,127.3 214.4,127.3 214.4,127.3 
					"/>
		<g>
			<path class="st22" d="M245.9,109.1L245.9,109.1L245.9,109.1L245.9,109.1l31.5-18.2L245.9,109.1L245.9,109.1z M245.8,72.7
				L245.8,72.7L245.8,72.7L245.8,72.7z"/>
		</g>
		<polygon class="st21" points="277.3,90.9 245.9,72.7 245.9,72.7 245.8,72.7 277.3,54.5 308.8,72.7 		"/>
		<path class="st23" d="M277.3,90.9L277.3,90.9L277.3,90.9L277.3,90.9z M277.3,90.9L277.3,90.9l31.5-18.2l0,0v0L277.3,90.9
			L277.3,90.9z"/>
		<polygon class="st22" points="214.4,127.3 214.4,90.9 245.8,109.1 245.9,109.1 245.9,109.1 245.9,109.1 245.9,109.1 214.4,127.3 
					"/>
		<polygon class="st21" points="245.9,109.1 245.8,109.1 214.4,90.9 231.8,80.8 237.4,77.6 245.8,72.7 245.9,72.7 245.9,72.7 
			277.3,90.9 277.3,90.9 277.3,90.9 277.3,90.9 277.3,90.9 277.3,90.9 		"/>
		<polygon class="st23" points="277.3,127.3 245.9,109.1 245.9,109.1 277.3,90.9 277.3,90.9 277.3,127.3 		"/>
		<path class="st23" d="M308.8,109.1l-31.5-18.2L308.8,109.1L308.8,109.1L308.8,109.1z M277.3,90.9L277.3,90.9z"/>
		<polygon class="st14" points="277.3,127.3 277.3,90.9 277.3,90.9 277.3,90.9 308.8,109.1 		"/>
		<polygon class="st28" points="308.8,109.1 277.3,90.9 277.3,90.9 277.3,90.9 277.3,90.9 308.8,72.7 308.8,72.7 323.8,81.4 
			340.3,90.9 		"/>
		<polygon class="st29" points="182.9,72.7 182.9,72.7 151.4,54.5 151.4,18.2 182.9,36.4 182.9,36.4 182.9,36.4 		"/>
		<polygon class="st30" points="182.9,36.4 151.4,18.2 182.9,0 214.4,18.2 		"/>
		<polygon class="st31" points="182.9,72.7 182.9,72.7 182.9,36.4 214.4,18.2 214.4,54.5 182.9,72.7 		"/>
		<polygon class="st25" points="56.9,109.1 25.4,90.9 88.4,54.5 119.9,72.7 119.9,72.7 56.9,109.1 		"/>
		<polygon class="st26" points="88.4,127.3 56.9,109.1 119.9,72.7 119.9,109.1 119.9,109.1 119.9,109.1 119.9,109.1 		"/>
		<polygon class="st21" points="245.8,145.4 214.4,127.3 245.8,145.4 		"/>
		<polygon class="st32" points="214.4,163.6 214.4,127.3 245.8,145.4 		"/>
		<polygon class="st33" points="245.8,145.4 214.4,127.3 214.4,127.3 245.9,109.1 245.9,109.1 277.3,127.3 		"/>
		<g>
			<path class="st21" d="M182.9,363.6L168,355L182.9,363.6L182.9,363.6L182.9,363.6z M151.4,345.4l-63-36.4l31.5-18.2h0l31.5-18.2
				V345.4z M182.9,327.2l-5.1-2.9L182.9,327.2L182.9,327.2z M182.9,290.9l-31.5-18.2L182.9,290.9L182.9,290.9z M151.4,272.7l0-36.4
				l-31.5,18.2l0,0l0,0l0,0l31.5-18.2l0,0v0l31.5,18.2v0L151.4,272.7L151.4,272.7z M88.4,236.3L88.4,236.3l8.5-4.9L88.4,236.3
				L88.4,236.3L88.4,236.3z M119.9,218.2L119.9,218.2L119.9,218.2L119.9,218.2L119.9,218.2z M25.4,200V90.9l0,0l0,0v36.4l0,0l0,0
				v36.4l31.5,18.2v0L25.4,200L25.4,200L25.4,200z M88.4,163.6l-63-36.4L88.4,163.6L88.4,163.6z M119.9,145.4l-31.5-18.2l0,0
				L119.9,145.4L119.9,145.4L119.9,145.4z"/>
		</g>
		<polygon class="st34" points="182.9,363.6 168,355 151.4,345.4 151.4,309.1 151.4,309.1 177.8,324.3 182.9,327.2 182.9,363.6 		
			"/>
		<polygon class="st22" points="119.9,145.4 119.9,145.4 119.9,145.4 119.9,145.4 119.9,145.4 119.9,145.4 		"/>
		<polygon class="st35" points="88.4,236.3 88.4,236.3 88.4,236.3 88.4,236.3 119.9,218.2 119.9,218.2 119.9,218.2 119.9,218.2 
			119.9,218.2 96.9,231.4 88.4,236.3 		"/>
		<path class="st36" d="M119.9,254.5L119.9,254.5l-3.2-1.9l-28.3-16.3L119.9,254.5L119.9,254.5z M151.4,236.3l-31.5-18.2l0,0v0
			L151.4,236.3L151.4,236.3L151.4,236.3z"/>
		<g>
			<path class="st14" d="M88.4,200L88.4,200L88.4,200L88.4,200L88.4,200L88.4,200z M56.9,181.8l-31.5-18.2v-36.4l63,36.4L56.9,181.8
				L56.9,181.8z"/>
		</g>
		<polygon class="st28" points="88.4,163.6 88.4,163.6 25.4,127.3 56.9,145.4 88.4,127.3 119.9,145.4 119.9,145.4 88.4,163.6 		"/>
		<g>
			<path class="st29" d="M119.9,218.2L119.9,218.2l0-36.4l0,0L119.9,218.2L119.9,218.2L119.9,218.2z M88.4,200L88.4,200l31.5-18.2h0
				L88.4,200L88.4,200z M113.1,177.9l-24.7-14.3v0L113.1,177.9z"/>
		</g>
		<polygon class="st30" points="119.9,181.8 119.9,181.8 119.9,181.8 119.9,181.8 113.1,177.9 88.4,163.6 119.9,145.4 119.9,145.4 
					"/>
		<polygon class="st37" points="182.9,254.5 151.4,236.3 119.9,218.2 119.9,145.4 182.9,181.8 		"/>
		<path class="st28" d="M182.9,181.8l-63-36.4L182.9,181.8z"/>
		<polygon class="st34" points="182.9,327.2 177.8,324.3 151.4,309.1 151.4,272.7 182.9,290.9 		"/>
		<polygon class="st38" points="182.9,290.9 151.4,272.7 182.9,254.5 		"/>
		<path class="st21" d="M56.9,290.9l-29.3-16.9L56.9,290.9L56.9,290.9z M25.4,272.7v-36.4l0,0L25.4,272.7L25.4,272.7z"/>
		<path class="st39" d="M56.9,290.9l-29.3-16.9l-2.2-1.3l0-36.4l31.5,18.2L56.9,290.9L56.9,290.9z M56.9,254.5L56.9,254.5
			L56.9,254.5L56.9,254.5L56.9,254.5z"/>
		<polygon class="st35" points="88.4,236.3 88.4,236.3 88.4,236.3 88.4,236.3 88.4,236.3 		"/>
		<g>
			<path class="st36" d="M88.4,272.7l-31.5-18.2L88.4,272.7L88.4,272.7z M88.4,236.3L88.4,236.3L88.4,236.3z M88.4,236.3L88.4,236.3
				L88.4,236.3L88.4,236.3z M88.4,236.3L88.4,236.3L88.4,236.3L88.4,236.3z"/>
		</g>
		<path class="st39" d="M119.9,290.9L119.9,290.9l0-36.4l0,0l0,0h0L119.9,290.9L119.9,290.9z M116.7,252.7l-28.3-16.3v0l0,0
			L116.7,252.7z"/>
		<polygon class="st35" points="119.9,254.5 119.9,254.5 88.4,236.3 88.4,236.3 88.4,236.3 96.9,231.4 119.9,218.2 119.9,218.2 
			151.4,236.3 151.4,236.3 		"/>
		<polygon class="st36" points="119.9,290.9 119.9,290.9 119.9,254.5 151.4,236.3 151.4,272.7 		"/>
		<polygon class="st39" points="88.4,309.1 56.9,290.9 56.9,254.5 56.9,254.5 56.9,254.5 88.4,272.7 		"/>
		<polygon class="st35" points="88.4,272.7 56.9,254.5 56.9,254.5 88.4,236.3 88.4,236.3 116.7,252.7 119.9,254.5 		"/>
		<polygon class="st36" points="88.4,309.1 88.4,309.1 88.4,272.7 119.9,254.5 119.9,290.9 		"/>
		<polygon class="st21" points="56.9,218.2 25.4,200 25.4,200 56.9,218.2 		"/>
		<polygon class="st35" points="56.9,218.2 56.9,218.2 56.9,218.2 56.9,218.2 56.9,218.2 56.9,218.2 56.9,218.2 		"/>
		<polygon class="st21" points="56.9,109.1 25.4,90.9 56.9,109.1 56.9,109.1 56.9,109.1 		"/>
		<polygon class="st29" points="56.9,254.5 56.9,254.5 25.4,236.3 25.4,236.3 25.4,200 56.9,218.2 56.9,218.2 56.9,218.2 		"/>
		<polygon class="st30" points="56.9,218.2 56.9,218.2 25.4,200 25.4,200 56.9,181.8 56.9,218.2 56.9,218.2 		"/>
		<polygon class="st31" points="56.9,254.5 56.9,254.5 56.9,218.2 56.9,218.2 88.4,236.3 88.4,236.3 		"/>
		<polygon class="st24" points="56.9,145.4 25.4,127.3 25.4,127.3 25.4,90.9 56.9,109.1 56.9,109.1 		"/>
		<polygon class="st25" points="56.9,109.1 25.4,90.9 56.9,109.1 		"/>
		<polygon class="st26" points="56.9,145.4 56.9,145.4 56.9,109.1 88.4,127.3 88.4,127.3 		"/>
		<polygon class="st29" points="88.4,236.3 88.4,236.3 56.9,218.2 56.9,218.2 56.9,218.2 56.9,181.8 88.4,200 88.4,200 88.4,200 		
			"/>
		<polygon class="st30" points="88.4,200 56.9,181.8 88.4,163.6 88.4,163.6 88.4,163.6 113.1,177.9 119.9,181.8 88.4,200 		"/>
		<polygon class="st31" points="88.4,236.3 88.4,236.3 88.4,200 88.4,200 119.9,181.8 119.9,218.2 		"/>
		<g>
			<path class="st21" d="M182.9,363.6L182.9,363.6L182.9,363.6L182.9,363.6z M214.4,345.4l0-36.4l0,0l0-36.4l-31.5,18.2l0,0v0l0,0
				l31.5-18.2l-31.5-18.2l0,0v0l0,0l0,0l31.5,18.2h0v36.4l31.5,18.2L214.4,345.4L214.4,345.4z M182.9,327.2L182.9,327.2L182.9,327.2
				L182.9,327.2L182.9,327.2L182.9,327.2z M277.3,309.1l0-36.4l-31.5,18.2l-31.5-18.2l31.5,18.2l31.5-18.2l-31.5-18.2l-9.9,5.7
				l9.9-5.7v-36.4v36.4l31.5,18.2l0,0l31.5,18.2L277.3,309.1L277.3,309.1z M308.8,254.5L308.8,254.5L308.8,254.5L308.8,254.5
				l31.5-18.2L308.8,254.5L308.8,254.5L308.8,254.5z M214.4,236.3L214.4,236.3l30.5-17.6l1-0.6L214.4,236.3L214.4,236.3L214.4,236.3
				z"/>
		</g>
		<polygon class="st34" points="182.9,363.6 182.9,363.6 182.9,327.2 182.9,327.2 182.9,363.6 182.9,363.6 		"/>
		<polygon class="st40" points="182.9,363.6 182.9,327.2 182.9,327.2 214.4,309.1 214.4,345.4 		"/>
		<polygon class="st32" points="308.8,290.9 277.3,272.7 277.3,272.7 308.8,254.5 308.8,254.5 308.8,254.5 308.8,290.9 		"/>
		<polygon class="st35" points="308.8,254.5 308.8,254.5 308.8,254.5 308.8,254.5 308.8,254.5 340.3,236.3 340.3,236.3 		"/>
		<polygon class="st41" points="308.8,290.9 308.8,254.5 340.3,236.3 340.3,272.7 		"/>
		<polygon class="st38" points="244.8,218.8 245.8,218.2 245.8,218.2 		"/>
		<polygon class="st41" points="214.4,272.7 214.4,236.3 245.8,218.2 245.8,218.2 245.8,254.5 235.9,260.3 214.4,272.7 		"/>
		<polygon class="st32" points="214.4,272.7 182.9,254.5 182.9,254.5 214.4,236.3 214.4,236.3 214.4,272.7 214.4,272.7 		"/>
		<polygon class="st14" points="182.9,254.5 182.9,254.5 182.9,254.5 182.9,181.8 182.9,181.8 		"/>
		<polygon class="st28" points="182.9,181.8 182.9,181.8 182.9,181.8 214.4,163.6 214.4,163.6 214.4,163.6 		"/>
		<polygon class="st40" points="182.9,254.5 182.9,254.5 182.9,181.8 214.4,163.6 245.8,181.8 245.8,218.2 245.8,218.2 244.8,218.8 
			214.4,236.3 		"/>
		<polygon class="st22" points="245.8,181.8 214.4,163.6 214.4,163.6 214.4,163.6 214.4,163.6 214.4,163.6 245.8,181.8 245.8,181.8 
			245.8,181.8 		"/>
		<polygon class="st22" points="245.8,327.2 214.4,309.1 214.4,272.7 245.8,290.9 245.8,290.9 245.8,327.2 		"/>
		<polygon class="st21" points="245.8,290.9 214.4,272.7 214.4,272.7 235.9,260.3 245.8,254.5 277.3,272.7 		"/>
		<polygon class="st23" points="245.8,327.2 245.8,290.9 277.3,272.7 277.3,309.1 		"/>
		<polygon class="st34" points="182.9,327.2 182.9,327.2 182.9,327.2 182.9,290.9 182.9,290.9 182.9,290.9 		"/>
		<polygon class="st38" points="182.9,290.9 182.9,290.9 182.9,254.5 182.9,254.5 214.4,272.7 		"/>
		<polygon class="st40" points="182.9,327.2 182.9,327.2 182.9,290.9 214.4,272.7 214.4,309.1 214.4,309.1 		"/>
		<g>
			<path class="st21" d="M308.8,218.2L308.8,218.2L308.8,218.2L308.8,218.2l31.5-18.2L308.8,218.2L308.8,218.2L308.8,218.2z
				 M277.3,200L277.3,200L277.3,200L277.3,200L277.3,200L277.3,200z M277.3,200L277.3,200L277.3,200L277.3,200L277.3,200z
				 M340.3,200l-31.5-18.2l0,0v0L283,196.7l-1.1,0.6l21.7-12.5l5.2-3l0,0v-36.4l-31.5,18.2v0l31.5-18.2l-31.5-18.2v0l31.5,18.2
				l31.5-18.2L340.3,200L340.3,200z"/>
		</g>
		<path class="st23" d="M277.3,127.3L277.3,127.3L277.3,127.3L277.3,127.3z M277.3,127.3L277.3,127.3L277.3,127.3L277.3,127.3
			L277.3,127.3z"/>
		<polygon class="st21" points="308.8,109.1 308.8,109.1 308.8,109.1 308.8,109.1 340.3,90.9 308.8,109.1 		"/>
		<polygon class="st23" points="308.8,109.1 308.8,109.1 308.8,109.1 308.8,109.1 		"/>
		<path class="st34" d="M308.8,254.5L308.8,254.5l0-36.4l0,0v0l0,0l0,0v0l0,0h0L308.8,254.5z M277.3,200L277.3,200L277.3,200
			L277.3,200L277.3,200z"/>
		<path class="st38" d="M308.8,218.2L308.8,218.2l0-36.4l0,0l31.5,18.2v0L308.8,218.2z M277.3,200L277.3,200l4.6-2.6l1.1-0.6
			L277.3,200L277.3,200L277.3,200z"/>
		<polygon class="st40" points="308.8,254.5 308.8,254.5 308.8,218.2 340.3,200 340.3,236.3 		"/>
		<polygon class="st14" points="308.8,145.4 277.3,127.3 277.3,127.3 277.3,127.3 277.3,127.3 277.3,127.3 277.3,127.3 308.8,109.1 
			308.8,109.1 308.8,109.1 		"/>
		<polygon class="st28" points="308.8,109.1 308.8,109.1 308.8,109.1 340.3,90.9 340.3,90.9 		"/>
		<polygon class="st42" points="308.8,145.4 308.8,145.4 308.8,109.1 340.3,90.9 340.3,127.3 		"/>
		<polygon class="st21" points="277.3,236.3 277.3,236.3 277.3,236.3 277.3,236.3 		"/>
		<polygon class="st39" points="277.3,272.7 245.8,254.5 245.8,218.2 277.3,236.3 277.3,236.3 277.3,236.3 		"/>
		<path class="st35" d="M277.3,236.3L277.3,236.3l11.5-6.6L277.3,236.3z M308.8,218.2L308.8,218.2L308.8,218.2L308.8,218.2
			L308.8,218.2L308.8,218.2z"/>
		<polygon class="st36" points="277.3,272.7 277.3,272.7 277.3,236.3 288.8,229.7 308.8,218.2 308.8,218.2 308.8,254.5 308.8,254.5 
			308.8,254.5 308.8,254.5 		"/>
		<path class="st39" d="M277.3,236.3l-31.5-18.2l0,0l0,0l0,0v-36.4l31.5,18.2L277.3,236.3z M277.3,200L277.3,200L277.3,200z"/>
		<polygon class="st35" points="303.6,184.8 308.8,181.8 308.8,181.8 308.8,181.8 		"/>
		<polygon class="st36" points="277.3,236.3 277.3,236.3 277.3,200 277.3,200 277.3,200 283,196.7 308.8,181.8 308.8,218.2 
			308.8,218.2 288.8,229.7 277.3,236.3 277.3,236.3 		"/>
		<polygon class="st21" points="245.8,145.4 245.8,145.4 245.8,145.4 		"/>
		<polygon class="st39" points="277.3,200 245.8,181.8 245.8,181.8 245.8,181.8 245.9,181.8 277.3,163.6 		"/>
		<path class="st35" d="M277.3,163.6l0-36.3l31.5,18.2L277.3,163.6L277.3,163.6z M245.9,145.4L245.9,145.4L245.9,145.4L245.9,145.4
			l31.5-18.2L245.9,145.4L245.9,145.4z"/>
		<polygon class="st36" points="277.3,200 277.3,200 277.3,163.6 277.3,163.6 277.3,163.6 308.8,145.4 308.8,181.8 303.6,184.8 
			281.9,197.3 277.3,200 277.3,200 		"/>
		<polygon class="st32" points="245.9,181.8 245.8,181.8 214.4,163.6 214.4,163.6 245.8,145.4 245.8,145.4 245.9,145.4 245.9,145.4 
					"/>
		<polygon class="st33" points="245.9,145.4 245.8,145.4 245.8,145.4 277.3,127.3 277.3,127.3 277.3,127.3 277.3,127.3 277.3,127.3 
					"/>
		<polygon class="st41" points="245.9,181.8 245.9,181.8 245.9,145.4 277.3,127.3 277.3,127.3 277.3,127.3 277.3,127.3 277.3,163.6 
			277.3,163.6 277.3,163.6 		"/>
	</g>
</g>
</svg>
