<?xml version="1.0" encoding="utf-8"?>
<!-- Generator: Adobe Illustrator 23.0.1, SVG Export Plug-In . SVG Version: 6.00 Build 0)  -->
<svg version="1.1" id="图层_1" xmlns="http://www.w3.org/2000/svg" xmlns:xlink="http://www.w3.org/1999/xlink" x="0px" y="0px"
	 viewBox="0 0 200 200" style="enable-background:new 0 0 200 200;" xml:space="preserve">
<style type="text/css">
	.st0{fill:#1E62A1;}
	.st1{fill:#282F63;}
	.st2{fill:#E5F1F9;}
	.st3{fill:#FFDBA0;}
	.st4{fill:#3381BC;}
	.st5{fill:#FFFFFF;}
</style>
<path class="st0" d="M140.6,171.2c-0.6,0-1.1-0.1-1.6-0.4c-1-0.6-1.6-1.7-1.6-2.9v-43.6c0-1.2,0.6-2.3,1.7-2.9l38.2-21.7
	c0.5-0.3,1.1-0.4,1.6-0.4c0.6,0,1.2,0.1,1.7,0.4c1,0.6,1.6,1.7,1.6,2.8v43.3c0,1.2-0.6,2.3-1.6,2.9l-38.2,22.1
	C141.7,171,141.2,171.2,140.6,171.2L140.6,171.2z"/>
<path class="st1" d="M178.9,102.5v43.3l-38.2,22.1v-43.6L178.9,102.5 M178.9,95.9c-1.1,0-2.3,0.3-3.3,0.9l-38.2,21.7
	c-2.1,1.2-3.3,3.4-3.3,5.7v43.6c0,2.4,1.3,4.5,3.3,5.7c1,0.6,2.2,0.9,3.3,0.9c1.1,0,2.3-0.3,3.3-0.9l38.2-22.1
	c2-1.2,3.3-3.4,3.3-5.7v-43.2c0-2.4-1.3-4.5-3.3-5.7C181.2,96.2,180,95.9,178.9,95.9z"/>
<path class="st2" d="M140.6,127.6c-0.6,0-1.2-0.1-1.7-0.4c-1-0.6-1.6-1.7-1.6-2.8V80c0-1.2,0.6-2.3,1.7-2.9l38.2-21.7
	c0.5-0.3,1.1-0.4,1.6-0.4c0.6,0,1.2,0.1,1.7,0.4c1,0.6,1.6,1.7,1.6,2.8v44.3c0,1.2-0.6,2.3-1.7,2.9l-38.3,21.8
	C141.7,127.4,141.2,127.6,140.6,127.6L140.6,127.6z"/>
<path class="st1" d="M178.9,58.3v44.3l-38.2,21.7V80L178.9,58.3 M178.9,51.7c-1.1,0-2.3,0.3-3.3,0.9l-38.2,21.7
	c-2.1,1.2-3.3,3.4-3.3,5.7v44.3c0,2.4,1.3,4.5,3.3,5.7c1,0.6,2.2,0.9,3.3,0.9c1.1,0,2.3-0.3,3.3-0.9l38.2-21.7
	c2.1-1.2,3.3-3.4,3.3-5.7V58.3c0-2.4-1.3-4.5-3.3-5.7C181.2,52,180,51.7,178.9,51.7z"/>
<path class="st3" d="M135.6,84.4c-0.6,0-1.1-0.1-1.6-0.4l-1-0.6c-1-0.6-1.7-1.7-1.7-2.9c0-1.2,0.6-2.3,1.7-2.9l1-0.6
	c0.5-0.3,1.1-0.4,1.6-0.4s1.2,0.1,1.7,0.4c1,0.6,1.6,1.7,1.6,2.8v1.1c0,1.2-0.6,2.3-1.6,2.8C136.8,84.3,136.2,84.4,135.6,84.4z"/>
<path class="st1" d="M135.6,80v1.1l-1-0.6L135.6,80 M135.6,73.4c-1.1,0-2.3,0.3-3.3,0.9l-1,0.6c-2.1,1.2-3.3,3.4-3.3,5.7
	s1.3,4.6,3.3,5.7l1,0.6c1,0.6,2.1,0.9,3.3,0.9c1.2,0,2.3-0.3,3.3-0.9c2-1.2,3.3-3.4,3.3-5.7V80c0-2.4-1.3-4.5-3.3-5.7
	C137.9,73.7,136.8,73.4,135.6,73.4z"/>
<path class="st3" d="M97.5,149.2c-0.6,0-1.2-0.1-1.7-0.4c-1-0.6-1.6-1.7-1.6-2.8v-1c0-1.2,0.6-2.3,1.6-2.8c0.5-0.3,1.1-0.4,1.7-0.4
	c0.6,0,1.1,0.1,1.6,0.4l0.9,0.5c1,0.6,1.7,1.7,1.7,2.9c0,1.2-0.6,2.3-1.7,2.9l-0.9,0.5C98.6,149.1,98.1,149.2,97.5,149.2z"/>
<path class="st1" d="M97.5,144.9l0.9,0.5l-0.9,0.5V144.9 M97.5,138.3c-1.2,0-2.3,0.3-3.3,0.9c-2,1.2-3.3,3.4-3.3,5.7v1
	c0,2.4,1.3,4.5,3.3,5.7c1,0.6,2.2,0.9,3.3,0.9c1.1,0,2.3-0.3,3.3-0.9l0.9-0.5c2.1-1.2,3.3-3.4,3.3-5.7s-1.3-4.6-3.3-5.7l-0.9-0.5
	C99.7,138.6,98.6,138.3,97.5,138.3z"/>
<path class="st0" d="M59.3,171.2c-0.6,0-1.1-0.1-1.6-0.4l-38.2-22.1c-1-0.6-1.6-1.7-1.6-2.9v-44.3c0-1.2,0.6-2.3,1.6-2.8
	c0.5-0.3,1.1-0.4,1.7-0.4c0.6,0,1.1,0.1,1.6,0.4l38.1,21.7c1,0.6,1.7,1.7,1.7,2.9v44.6c0,1.2-0.6,2.3-1.6,2.9
	C60.5,171,59.9,171.2,59.3,171.2L59.3,171.2z"/>
<path class="st1" d="M21.1,101.5l38.2,21.7v44.6l-38.2-22.1V101.5 M21.1,94.9c-1.2,0-2.3,0.3-3.3,0.9c-2,1.2-3.3,3.4-3.3,5.7v44.3
	c0,2.4,1.3,4.5,3.3,5.7L56,173.6c1,0.6,2.2,0.9,3.3,0.9c1.1,0,2.3-0.3,3.3-0.9c2-1.2,3.3-3.4,3.3-5.7v-44.7c0-2.4-1.3-4.6-3.3-5.7
	L24.5,95.8C23.4,95.2,22.3,94.9,21.1,94.9L21.1,94.9z"/>
<path class="st4" d="M27.7,108.1l31.6,18v-2.8l-38.2-21.7v44.3l6.6,3.8L27.7,108.1z"/>
<path class="st2" d="M102.5,193.2c-0.6,0-1.1-0.1-1.6-0.4c-1-0.6-1.6-1.7-1.6-2.9V146c0-1.2,0.6-2.3,1.7-2.9l38.1-21.7
	c0.5-0.3,1.1-0.4,1.6-0.4c0.6,0,1.2,0.1,1.7,0.4c1,0.6,1.6,1.7,1.6,2.8v43.6c0,1.2-0.6,2.3-1.6,2.9l-38.1,22
	C103.6,193,103.1,193.2,102.5,193.2z"/>
<path class="st1" d="M140.6,124.3v43.6l-38.1,22V146l0.9-0.5L140.6,124.3 M140.6,117.7c-1.1,0-2.3,0.3-3.3,0.9l-37.2,21.2l-0.9,0.5
	c-2.1,1.2-3.3,3.4-3.3,5.7v43.9c0,2.4,1.3,4.5,3.3,5.7c1,0.6,2.2,0.9,3.3,0.9c1.1,0,2.3-0.3,3.3-0.9l38.1-22c2-1.2,3.3-3.4,3.3-5.7
	v-43.6c0-2.4-1.3-4.5-3.3-5.7C142.9,118,141.8,117.7,140.6,117.7L140.6,117.7z"/>
<path class="st2" d="M103.4,148.8c-0.6,0-1.1-0.1-1.6-0.4l-0.9-0.5c-1-0.6-1.7-1.7-1.7-2.9v-43.2c0-1.2,0.6-2.3,1.7-2.9L138,77.7
	c0.5-0.3,1.1-0.4,1.6-0.4c0.6,0,1.1,0.1,1.6,0.4l1,0.6c1,0.6,1.7,1.7,1.7,2.9v43.1c0,1.2-0.6,2.3-1.7,2.9L105,148.3
	C104.5,148.6,103.9,148.8,103.4,148.8L103.4,148.8z"/>
<path class="st1" d="M139.6,80.6l1,0.6v43.1l-37.2,21.2l-0.9-0.5v-43.2L139.6,80.6 M139.6,74c-1.1,0-2.3,0.3-3.3,0.9L99.2,96
	c-2.1,1.2-3.3,3.4-3.3,5.7v43.2c0,2.4,1.3,4.6,3.3,5.7l0.9,0.5c1,0.6,2.1,0.9,3.3,0.9s2.3-0.3,3.3-0.9l37.2-21.2
	c2.1-1.2,3.3-3.4,3.3-5.7V81.1c0-2.4-1.3-4.6-3.3-5.7l-1-0.6C141.9,74.2,140.8,74,139.6,74L139.6,74z"/>
<path class="st3" d="M59.3,126.5c-0.6,0-1.1-0.1-1.6-0.4l-38.2-21.7c-1-0.6-1.7-1.7-1.7-2.9V58.3c0-1.2,0.6-2.3,1.6-2.8
	c0.5-0.3,1.1-0.4,1.7-0.4c0.6,0,1.1,0.1,1.6,0.4l38.2,21.7c1,0.6,1.7,1.7,1.7,2.9v43.2c0,1.2-0.6,2.3-1.6,2.8
	C60.5,126.4,59.9,126.5,59.3,126.5z"/>
<path class="st1" d="M21.1,58.3L59.3,80v43.2l-38.2-21.7V58.3 M21.1,51.7c-1.2,0-2.3,0.3-3.3,0.9c-2,1.2-3.3,3.4-3.3,5.7v43.2
	c0,2.4,1.3,4.6,3.3,5.7L56.1,129c1,0.6,2.1,0.9,3.3,0.9c1.2,0,2.3-0.3,3.3-0.9c2-1.2,3.3-3.4,3.3-5.7V80c0-2.4-1.3-4.6-3.3-5.7
	L24.4,52.5C23.4,51.9,22.3,51.7,21.1,51.7L21.1,51.7z"/>
<path class="st5" d="M27.7,63.2l31.6,18V80L21.1,58.3v43.2l6.6,3.8L27.7,63.2z"/>
<path class="st2" d="M97.5,193.2c-0.6,0-1.1-0.1-1.6-0.4l-38.2-22c-1-0.6-1.6-1.7-1.6-2.9v-44.6c0-1.2,0.6-2.3,1.6-2.8
	c0.5-0.3,1.1-0.4,1.7-0.4c0.6,0,1.1,0.1,1.6,0.4l38.2,21.7c1,0.6,1.7,1.7,1.7,2.9v45c0,1.2-0.6,2.3-1.6,2.9
	C98.6,193,98.1,193.2,97.5,193.2L97.5,193.2z"/>
<path class="st1" d="M59.3,123.2l38.2,21.7v45l-38.2-22.1V123.2 M59.3,116.6c-1.2,0-2.3,0.3-3.3,0.9c-2,1.2-3.3,3.4-3.3,5.7v44.6
	c0,2.4,1.3,4.5,3.3,5.7l38.2,22.1c1,0.6,2.2,0.9,3.3,0.9c1.1,0,2.3-0.3,3.3-0.9c2-1.2,3.3-3.4,3.3-5.7v-45c0-2.4-1.3-4.6-3.3-5.7
	l-38.2-21.7C61.6,116.9,60.5,116.6,59.3,116.6z"/>
<path class="st2" d="M97.5,148.2c-0.6,0-1.1-0.1-1.6-0.4l-38.2-21.7c-1-0.6-1.7-1.7-1.7-2.9V80c0-1.2,0.6-2.3,1.6-2.8
	c0.5-0.3,1.1-0.4,1.7-0.4c0.6,0,1.1,0.1,1.6,0.4l38.2,21.7c1,0.6,1.7,1.7,1.7,2.9V145c0,1.2-0.6,2.3-1.6,2.8
	C98.6,148.1,98.1,148.2,97.5,148.2L97.5,148.2z"/>
<path class="st1" d="M59.3,80l38.2,21.7v43.2l-38.2-21.7V80 M59.3,73.4c-1.2,0-2.3,0.3-3.3,0.9c-2,1.2-3.3,3.4-3.3,5.7v43.2
	c0,2.4,1.3,4.6,3.3,5.7l38.2,21.7c1,0.6,2.1,0.9,3.3,0.9c1.2,0,2.3-0.3,3.3-0.9c2-1.2,3.3-3.4,3.3-5.7v-43.2c0-2.4-1.3-4.6-3.3-5.7
	L62.6,74.2C61.6,73.7,60.5,73.4,59.3,73.4L59.3,73.4z"/>
<path class="st3" d="M98.8,58.3c-0.6,0-1.1-0.1-1.6-0.4l-38-21.6c-1-0.6-1.7-1.7-1.7-2.9c0-1.2,0.6-2.3,1.6-2.9L99.2,7.3
	c0.5-0.3,1.1-0.4,1.6-0.4c0.6,0,1.1,0.1,1.6,0.4l38.1,22c1,0.6,1.6,1.7,1.6,2.9c0,1.2-0.6,2.3-1.7,2.9l-40.1,22.8
	C99.9,58.1,99.3,58.3,98.8,58.3L98.8,58.3z"/>
<path class="st1" d="M100.8,10.2l38,22L98.8,55l-38-21.6L100.8,10.2 M100.8,3.6c-1.1,0-2.3,0.3-3.3,0.9L57.4,27.6
	c-2.1,1.2-3.3,3.4-3.3,5.7c0,2.4,1.3,4.6,3.3,5.7l38,21.6c1,0.6,2.1,0.9,3.3,0.9s2.3-0.3,3.3-0.9l40.1-22.8c2.1-1.2,3.3-3.4,3.3-5.7
	c0-2.4-1.3-4.6-3.3-5.7l-38-22C103.1,3.9,102,3.6,100.8,3.6L100.8,3.6z"/>
<path class="st5" d="M67.4,36.6L107,13.8l-6.2-3.6L60.8,33.4l38,21.6l0.4-0.2L67.4,36.6z"/>
<path class="st2" d="M61.6,79.4c-0.6,0-1.1-0.1-1.6-0.4L22.8,57.8c-1-0.6-1.7-1.7-1.7-2.9v-0.7c0-1.2,0.6-2.3,1.6-2.9l36.3-20.9
	c0.5-0.3,1.1-0.4,1.6-0.4c0.6,0,1.1,0.1,1.6,0.4l38,21.6c1,0.6,1.7,1.7,1.7,2.9s-0.6,2.3-1.7,2.9L63.2,79
	C62.7,79.3,62.2,79.4,61.6,79.4z"/>
<path class="st1" d="M60.8,33.4l38,21.6L61.6,76.1L24.5,55v-0.7L60.8,33.4 M60.8,26.7c-1.2,0-2.3,0.3-3.3,0.9L21.2,48.6
	c-2,1.2-3.3,3.4-3.3,5.7v0.7c0,2.4,1.3,4.6,3.3,5.7l37.2,21.1c1,0.6,2.1,0.9,3.3,0.9s2.3-0.3,3.3-0.9L102,60.7
	c2.1-1.2,3.3-3.4,3.3-5.7s-1.3-4.6-3.3-5.7L64,27.6C63,27,61.9,26.7,60.8,26.7z"/>
<path class="st5" d="M30.1,57.6l36.3-20.9l-5.6-3.3L24.5,54.3V55l5.6,3.2V57.6z"/>
<path class="st0" d="M138,80.6c-0.6,0-1.1-0.1-1.6-0.4L97.1,57.8c-1-0.6-1.7-1.7-1.7-2.9s0.6-2.3,1.7-2.9l40.1-22.8
	c0.5-0.3,1.1-0.4,1.6-0.4c0.6,0,1.1,0.1,1.6,0.4l38.3,22.1c1,0.6,1.6,1.7,1.6,2.9v0.7c0,1.2-0.6,2.3-1.7,2.9l-39.2,22.3
	C139.1,80.4,138.5,80.6,138,80.6z"/>
<path class="st1" d="M138.8,32.2l38.3,22.2V55l-38.2,21.7l-1,0.6L98.8,55L138.8,32.2 M138.8,25.5c-1.1,0-2.3,0.3-3.3,0.9L95.5,49.2
	c-2.1,1.2-3.3,3.4-3.3,5.7s1.3,4.6,3.3,5.7L134.7,83c1,0.6,2.1,0.9,3.3,0.9c1.1,0,2.3-0.3,3.3-0.9l1-0.6l38.2-21.7
	c2.1-1.2,3.3-3.4,3.3-5.7v-0.6c0-2.4-1.3-4.5-3.3-5.7l-38.3-22.1C141.1,25.8,140,25.5,138.8,25.5L138.8,25.5z"/>
<path class="st3" d="M100.8,101.7c-0.6,0-1.1-0.1-1.6-0.4L60,79c-1-0.6-1.7-1.7-1.7-2.9s0.6-2.3,1.7-2.9l37.2-21.1
	c0.5-0.3,1.1-0.4,1.6-0.4c0.6,0,1.1,0.1,1.6,0.4l39.2,22.3c1,0.6,1.7,1.7,1.7,2.9s-0.6,2.3-1.7,2.9l-37.2,21.1
	C102,101.6,101.4,101.7,100.8,101.7z"/>
<path class="st1" d="M98.8,55L138,77.3l-37.2,21.1L62.6,76.7v-0.7v0.7l-1-0.6L98.8,55 M98.8,48.3c-1.1,0-2.3,0.3-3.3,0.9L58.3,70.3
	c-2.1,1.2-3.3,3.4-3.3,5.7s1.3,4.6,3.3,5.7l1,0.6l38.2,21.7c1,0.6,2.1,0.9,3.3,0.9s2.3-0.3,3.3-0.9L141.3,83
	c2.1-1.2,3.3-3.4,3.3-5.7s-1.3-4.6-3.3-5.7L102,49.2C101,48.6,99.9,48.3,98.8,48.3z"/>
</svg>
