<?xml version="1.0" encoding="UTF-8" standalone="no"?>
<svg width="208px" height="64px" viewBox="0 0 208 64" version="1.1" xmlns="http://www.w3.org/2000/svg" xmlns:xlink="http://www.w3.org/1999/xlink" xmlns:sketch="http://www.bohemiancoding.com/sketch/ns">
    <!-- Generator: Sketch 3.3.3 (12072) - http://www.bohemiancoding.com/sketch -->
    <title>Imported Layers Copy 5</title>
    <desc>Created with Sketch.</desc>
    <defs></defs>
    <g id="Page-1" stroke="none" stroke-width="1" fill="none" fill-rule="evenodd" sketch:type="MSPage">
        <g id="About---Desktop" sketch:type="MSArtboardGroup" transform="translate(-663.000000, -1705.000000)" fill="#21396F">
            <g id="Imported-Layers-Copy-4-+-Imported-Layers-Copy-5" sketch:type="MSLayerGroup" transform="translate(362.000000, 1705.000000)">
                <g id="Imported-Layers-Copy-5" transform="translate(301.000000, 0.000000)" sketch:type="MSShapeGroup">
                    <path d="M22.6373333,0.195229358 C23.6720452,0.364036697 24.7146893,0.495559633 25.74,0.708697248 C28.4437062,1.2706055 30.8988701,2.34245872 32.7464859,4.47500917 C36.0815367,8.32352294 35.803322,14.3668257 32.0243616,18.0864587 C30.7872316,19.3042202 29.2580791,20.2278165 27.8479096,21.2659083 C27.3546441,21.6290642 26.8170169,21.9320367 26.1339661,22.3685872 C26.6586667,22.6016881 27.023548,22.7402569 27.3666893,22.9199266 C29.084452,23.8200367 30.8612655,24.6279633 32.4991186,25.6560734 C39.3343277,29.9455413 38.8351864,41.2524037 30.908565,44.9423853 C28.119661,46.2405872 25.1853333,46.9666055 22.1431864,47.0033028 C19.3707345,47.0364771 16.5959322,46.6744954 13.8193672,46.6172477 C10.5283842,46.5497248 7.23416949,46.6234128 3.94171751,46.6325138 C3.34856497,46.6342752 2.74366102,46.6865321 2.16813559,46.5826055 C1.91959322,46.5376881 1.54854237,46.1428257 1.56264407,45.9291009 C1.58144633,45.6481468 1.89638418,45.1907523 2.13493785,45.1558165 C3.03774011,45.0225321 3.96051977,45.0063853 4.87683616,44.9887706 C7.07846328,44.9459083 7.17688136,44.8590092 7.17688136,42.7076697 C7.17717514,31.6295046 7.19186441,20.5513394 7.16042938,9.47346789 C7.1560226,7.86113761 7.0540791,6.22766972 6.77557062,4.64293578 C6.43184181,2.68653211 5.60248588,2.12755963 3.6279548,2.11904587 C2.97898305,2.11611009 2.32325424,2.16484404 1.68338983,2.08645872 C1.13871186,2.01981651 0.612248588,1.80433028 0.077559322,1.65489908 L0.077559322,0.844036697 C0.768542373,0.768293578 1.45835028,0.636770642 2.15021469,0.626495413 C5.36363842,0.579522936 8.57823729,0.600366972 11.7907797,0.527266055 C13.6225311,0.485577982 15.4513446,0.310311927 17.2813333,0.195229358 L22.6373333,0.195229358 L22.6373333,0.195229358 Z M13.4356836,32.7342385 C13.4356836,34.5171376 13.3637062,36.3035596 13.4559548,38.0817615 C13.5490847,39.8813945 13.7938079,41.6739817 13.9938757,43.467156 C14.0764294,44.2087339 14.5303277,44.7268991 15.215435,44.9479633 C16.1599548,45.2529908 17.120339,45.5788624 18.0980565,45.698055 C21.3517288,46.0952661 24.4156158,45.6425688 26.9501017,43.3250642 C30.0589379,40.482055 31.0404746,35.0811009 29.2331073,30.7807706 C26.8825311,25.1866422 21.0065311,22.8617982 15.491887,23.1427523 C13.7714802,23.2305321 13.4591864,23.6165872 13.4436158,25.3598532 C13.4212881,27.8179817 13.4377401,30.2761101 13.4356836,32.7342385 L13.4356836,32.7342385 Z M13.4403842,12.221945 L13.4359774,12.221945 C13.4359774,14.8685505 13.4315706,17.515156 13.4380339,20.1617615 C13.4409718,21.4496881 13.7168362,21.7165505 15.0015593,21.7696881 C17.8882938,21.8885872 20.7741469,22.018055 23.6608814,22.1313761 C23.8897401,22.1401835 24.1682486,22.1225688 24.3459887,22.0022018 C26.2708701,20.6990092 27.8408588,19.1136881 28.4061017,16.7533211 C28.9437288,14.5077431 29.0591864,12.2601101 28.3135593,10.0450642 C27.1263729,6.51948624 25.1583051,3.66179817 21.4428023,2.40058716 C19.383661,1.70157798 17.2725198,1.90825688 15.1872316,2.20976147 C13.7929266,2.41144954 13.4600678,2.86943119 13.447435,4.28183486 C13.4233446,6.92844037 13.4403842,9.57504587 13.4403842,12.221945 L13.4403842,12.221945 Z" id="Fill-1"></path>
                    <path d="M17.2813333,0.195229358 C15.4513446,0.310311927 13.6225311,0.485577982 11.7907797,0.527266055 C8.57823729,0.600366972 5.36363842,0.579522936 2.15021469,0.626495413 C1.45835028,0.636770642 0.768542373,0.768293578 0.077559322,0.844036697 L0.077559322,0.195229358 L17.2813333,0.195229358" id="Fill-2"></path>
                    <path d="M115.986441,20.0117431 C114.873288,21.4018349 113.985175,22.7772477 112.839412,23.8863853 C110.453288,26.1956697 107.934079,28.3681468 105.462757,30.5890642 C103.814328,32.0704587 103.609559,31.7748257 105.143119,33.6645872 C107.680836,36.7917798 110.264384,39.8819817 112.856452,42.9642569 C113.356768,43.5590459 113.916723,44.1623486 114.574215,44.549578 C115.242282,44.9432661 116.059593,45.0947523 116.822554,45.3128807 C117.208588,45.4232661 117.644271,45.3848073 118.009446,45.5321835 C118.233017,45.6220183 118.365514,45.9370275 118.538554,46.1510459 C118.345831,46.3031193 118.169853,46.5494312 117.956271,46.5884771 C117.455661,46.6794862 116.936836,46.695633 116.425356,46.6988624 C114.830395,46.708844 113.231028,46.6251743 111.642237,46.7211743 C110.53261,46.7881101 109.805492,46.3633028 109.155932,45.536 C106.619096,42.3051743 104.058757,39.0925505 101.497537,35.8808073 C100.117921,34.1507523 100.525401,34.3753394 98.8023503,35.4075596 C98.1072542,35.8241468 97.4347797,36.2786055 96.7537853,36.7180917 C96.2170395,37.0645138 95.9429379,37.5142752 95.9611525,38.1980183 C96.0049266,39.8458716 95.9629153,41.4957798 95.9872994,43.1442202 C96.0066893,44.4697248 96.4068249,44.8839633 97.7320904,44.9597064 C98.5144407,45.0043303 99.300904,44.967633 100.084429,44.9937615 C100.432565,45.005211 100.823299,44.9972844 101.111209,45.1525872 C101.359164,45.2864587 101.586554,45.6249541 101.627977,45.9020917 C101.647367,46.0321468 101.211684,46.370055 100.976949,46.375633 C99.544452,46.4088073 98.1104859,46.3609541 96.6771073,46.3638899 C93.6757966,46.3703486 90.6747797,46.4032294 87.6734689,46.3950092 C87.1922486,46.3938349 86.4463277,46.6342752 86.4313446,45.7823119 C86.4175367,45.0037431 87.1511186,45.0733211 87.6443842,45.0201835 C88.367096,44.9423853 89.1039096,45.0049174 89.832791,44.9682202 C90.8733785,44.9159633 91.1266215,44.6537982 91.1319096,43.6339083 C91.1921356,31.6054312 91.255887,19.5772477 91.2902599,7.54877064 C91.2931977,6.58524771 91.1421921,5.61086239 90.9615141,4.66055046 C90.8102147,3.86700917 90.2681808,3.40638532 89.4132655,3.37614679 C88.6027119,3.34737615 87.7921582,3.30891743 86.9830734,3.25166972 C86.5183051,3.21849541 86.036791,3.18561468 86.0779209,2.49952294 C86.1146441,1.8906422 86.5086102,1.84014679 86.9792542,1.83779817 C89.783435,1.82429358 92.5071186,1.29350459 95.2031864,0.57012844 C96.4547119,0.234275229 96.4917288,0.277431193 96.4720452,1.55801835 C96.3072316,12.3411376 96.1385989,23.1242569 95.9784859,33.9073761 C95.9549831,35.5017982 96.2490621,35.7219817 97.5813785,34.7581651 C100.029492,32.9873028 102.403864,31.1081101 104.738282,29.1881101 C106.04974,28.1095046 107.301266,26.9313761 108.42235,25.6593028 C109.111277,24.8777982 109.666237,23.8872661 109.987051,22.8955596 C110.402757,21.6105688 109.95826,21.1569908 108.618599,21.0994495 C107.862689,21.067156 107.098554,21.0994495 106.354102,20.992 C106.115254,20.9576514 105.927232,20.5695413 105.716,20.3431927 C105.938983,20.1644037 106.15991,19.8326606 106.384949,19.8300183 C109.381853,19.7944954 112.379345,19.8038899 115.376836,19.808 C115.47496,19.8082936 115.572791,19.8708257 115.986441,20.0117431" id="Fill-3"></path>
                    <path d="M178.77365,63.4207706 C179.102983,63.2675229 179.427028,63.101945 179.762237,62.9633761 C181.677424,62.1715963 183.314983,61.016367 184.505401,59.2977615 C186.687638,56.1470826 188.852836,52.9846606 191.025672,49.8275229 C192.086237,48.2865321 192.186418,46.784 191.401718,44.989945 C188.386305,38.0946789 185.517492,31.1354128 182.586983,24.2028624 C182.37722,23.7067156 182.105175,23.2369908 181.873085,22.749945 C181.393921,21.7453211 180.632429,21.2324404 179.489017,21.2902752 C179.085944,21.3105321 178.564768,21.4000734 178.561537,20.7110459 C178.558893,20.0725138 178.952271,19.8449908 179.500181,19.8529174 C180.742599,19.8714128 181.985017,19.9715229 183.226554,19.9565505 C185.334757,19.9310092 187.441785,19.8353028 189.549695,19.7851009 C190.034147,19.7736514 190.550915,19.7366606 190.994237,19.8857982 C191.256881,19.9741651 191.519232,20.3878165 191.560068,20.6855046 C191.582983,20.8516697 191.178147,21.197211 190.919616,21.2553394 C190.399322,21.3724771 189.847006,21.349578 189.307616,21.3824587 C188.528791,21.4300183 188.066373,21.8926972 188.068723,22.6181284 C188.071367,23.4122569 188.108678,24.2689174 188.401582,24.9884771 C190.231864,29.485211 192.136181,33.9517064 194.022576,38.4255413 C194.147729,38.7223486 194.290508,39.0273761 194.493514,39.2719266 C194.755277,39.5869358 195.085785,39.8444037 195.386328,40.1268257 C195.630757,39.8206239 195.898395,39.5291009 196.111684,39.2026422 C196.256226,38.9804037 196.340249,38.7138349 196.424859,38.458422 C197.934328,33.9026789 199.457311,29.3510459 200.927412,24.7826789 C201.144814,24.1074495 201.169492,23.3506055 201.172429,22.6313394 C201.175955,21.6792661 200.796678,21.3178716 199.850102,21.2506422 C199.014576,21.191633 198.176113,21.1704954 197.338825,21.1370275 C196.892565,21.1194128 196.631684,20.9464954 196.651661,20.4474128 C196.671345,19.9565505 196.946621,19.7918532 197.384362,19.7848073 C197.600588,19.7812844 197.816814,19.7777615 198.03304,19.7748257 C200.706486,19.7378349 203.379932,19.6996697 206.053379,19.6653211 C206.43148,19.6603303 206.818102,19.6283303 207.185333,19.6946789 C207.38687,19.730789 207.671254,19.9183853 207.711209,20.0871927 C207.762915,20.3041468 207.672429,20.6276697 207.522305,20.7997064 C207.360429,20.9846606 207.059593,21.1452477 206.818102,21.1475963 C205.56922,21.1599266 205.004271,22.0303853 204.575345,22.9686606 C203.129627,26.1325505 201.642192,29.2826422 200.343661,32.5073028 C196.431616,42.2232661 192.346237,51.8567339 187.534034,61.1713761 C186.869492,62.4575413 186.001356,63.141578 184.556226,63.290422 C182.930124,63.4577615 181.363367,64.125945 179.685853,63.8993028 C179.377379,63.8579083 179.077718,63.7531009 178.774237,63.6776514 C178.773944,63.5919266 178.773944,63.5062018 178.77365,63.4207706" id="Fill-4"></path>
                    <path d="M146.333288,24.7594862 C146.333288,18.7349725 146.340633,12.7101651 146.330056,6.68565138 C146.325062,3.72609174 146.036271,3.44278899 143.131616,3.33622018 C142.673311,3.31948624 142.188271,3.34414679 141.76904,3.1973578 C141.510215,3.10634862 141.19704,2.72675229 141.197333,2.47691743 C141.197333,2.26407339 141.598056,1.88154128 141.842192,1.86422018 C144.75948,1.65607339 147.639751,1.2706055 150.44687,0.40866055 C151.08174,0.213724771 151.396678,0.536954128 151.370237,1.34165138 C151.334689,2.42025688 151.17487,3.49592661 151.164,4.57423853 C151.091141,11.8946055 151.048249,19.2152661 150.985085,26.5359266 C150.941605,31.5863486 150.870508,36.6364771 150.840542,41.6868991 C150.836429,42.3542018 150.948949,43.0347156 151.102011,43.6867523 C151.335277,44.6816881 151.677243,44.9074495 152.690215,44.9561835 C153.41704,44.9911193 154.154734,44.9908257 154.863051,45.1308624 C155.12452,45.1825321 155.31548,45.5903119 155.538757,45.8357431 C155.282282,46.0198165 155.040497,46.3327706 154.766983,46.3630092 C154.045446,46.4428624 153.310102,46.4052844 152.580339,46.405578 C149.310802,46.407633 146.041266,46.4064587 142.771729,46.4058716 C142.420362,46.4058716 142.047842,46.4731009 141.723503,46.3782752 C141.417379,46.2890275 140.991684,46.0764771 140.920294,45.8307523 C140.779864,45.3472294 141.190576,45.1211743 141.637718,45.0709725 C142.065763,45.0231193 142.497627,45.0028624 142.928316,44.986422 C143.683932,44.957945 144.443073,44.9752661 145.195164,44.9103853 C145.986621,44.8419817 146.357672,44.4127706 146.351503,43.5625688 C146.323299,39.6993761 146.339164,35.8361835 146.339164,31.9726972 L146.339164,24.7594862 L146.333288,24.7594862" id="Fill-5"></path>
                    <path d="M64.0205198,43.1054679 C61.3670508,45.2350826 58.428904,46.8013211 55.0832768,47.2739817 C50.3721356,47.9395229 46.0987345,46.8653211 42.7560452,43.2378716 C41.1140791,41.4561468 40.3011751,39.2548991 39.9539209,36.8866055 C39.3443164,32.7298349 39.8328814,28.7412844 42.0471412,25.0973945 C43.8956384,22.0559266 46.5170847,19.9891376 50.0724746,19.2892477 C52.8910508,18.7340917 55.4728362,19.5120734 57.9291751,20.850789 C60.3628927,22.1774679 62.2519322,24.0648807 63.6638644,26.4366972 C64.259661,27.4377982 64.2047232,27.6617982 63.040452,27.8916697 C59.284113,28.6335413 55.5245424,29.3701284 51.7467571,29.9925138 C49.6993672,30.3298349 47.6146667,30.452844 45.5428927,30.6284037 C44.736452,30.6965138 44.4077062,31.0896147 44.3489492,31.858789 C43.8421695,38.498055 48.0418305,43.410789 54.6890169,44.0419817 C57.5575367,44.314422 60.2835706,43.9057615 62.9217627,42.789578 C63.3104407,42.6251743 63.7290847,42.341578 64.0205198,43.1054679 L64.0205198,43.1054679 Z M46.4480452,29.4411743 C49.963774,28.8754495 53.4809718,28.3188257 56.9943503,27.7393028 C58.3534011,27.5150092 58.5305537,27.1677064 57.9053785,25.8847706 C57.0105085,24.0478532 55.6679096,22.5708624 53.9921582,21.4244404 C51.6289492,19.8077064 49.2169718,20.1673394 47.3640678,22.3486239 C46.1119548,23.8223853 45.3924746,25.5597798 44.907435,27.403156 C44.4041808,29.3149358 44.4259209,29.3290275 46.4480452,29.4411743 L46.4480452,29.4411743 Z" id="Fill-6"></path>
                    <path d="M154.594531,33.8838899 C154.617446,29.229211 155.951525,25.093578 159.549514,21.9384954 C163.493876,18.4795596 168.409198,18.2171009 173.209062,21.0968073 C175.463277,22.4493211 177.225107,24.2724404 178.551842,26.5250642 C179.091819,27.4413211 179.044814,27.6485872 178.043887,27.853211 C174.635684,28.5507523 171.228068,29.2653211 167.796068,29.8242936 C165.374689,30.2185688 162.916588,30.4052844 160.469062,30.6137248 C159.577718,30.6897615 159.197559,31.115156 159.165243,31.9292477 C158.976045,36.6808073 160.740226,41.4890275 166.513989,43.373211 C170.183073,44.5707156 173.799864,44.3584587 177.367887,42.9478165 C177.619073,42.8485872 177.861153,42.7059083 178.120859,42.6577615 C178.298305,42.6251743 178.499842,42.7223486 178.690508,42.7613945 C178.630576,42.9642569 178.601492,43.1847339 178.501017,43.3649908 C178.427277,43.4965138 178.264814,43.5828257 178.132904,43.6764771 C175.384249,45.6252477 172.417605,47.1239633 169.018802,47.3934679 C162.405401,47.9180917 154.930328,44.6623119 154.596,34.8562202 C154.584836,34.5324037 154.594531,34.208 154.594531,33.8838899 L154.594531,33.8838899 Z M161.330734,29.445578 C164.892294,28.8631193 168.455616,28.2921101 172.014237,27.6917431 C173.158825,27.4985688 173.32452,27.1864954 172.834486,26.0949725 C171.961944,24.1511927 170.567638,22.6190092 168.825198,21.4264954 C166.436136,19.7912661 164.015051,20.1708624 162.156565,22.4032294 C160.940588,23.8637798 160.22052,25.5665321 159.75722,27.386422 C159.263073,29.3266789 159.274237,29.3293211 161.330734,29.445578 L161.330734,29.445578 Z" id="Fill-7"></path>
                    <path d="M141.155616,27.5467156 C139.897627,27.8705321 138.895525,28.1553028 137.881085,28.3851743 C132.789492,29.5386422 127.62974,30.2306055 122.428271,30.6389725 C121.484927,30.7129541 121.193785,30.994789 121.159119,31.9653578 C120.954056,37.7344587 123.575503,42.5018716 130.26235,43.8441101 C133.451977,44.4841101 136.54965,44.1162569 139.548904,42.8735413 C139.773356,42.7804771 139.993107,42.6460183 140.226079,42.6146055 C140.376791,42.5946422 140.617695,42.6853578 140.689379,42.8042569 C140.753424,42.9096514 140.681446,43.149211 140.59478,43.2804404 C140.495186,43.4313394 140.320384,43.5376147 140.166734,43.6471193 C137.330237,45.669578 134.261062,47.2161468 130.739458,47.4204771 C124.207729,47.7997798 117.151006,44.568367 116.614847,35.3059817 C116.375119,31.1630092 117.098124,27.2657615 119.691073,23.9175046 C122.353062,20.4802936 125.83765,18.5664587 130.262938,19.2595963 C134.185853,19.874055 137.333175,21.9716697 139.669944,25.2092477 C140.15322,25.8788991 140.560113,26.6040367 141.155616,27.5467156 L141.155616,27.5467156 Z M123.286418,29.4555596 C127.006034,28.8428624 130.725944,28.231633 134.444972,27.6154128 C134.935887,27.5340917 135.160045,27.229945 135.017266,26.746422 C134.888881,26.3110459 134.74904,25.8656881 134.527819,25.4734679 C133.627073,23.8766972 132.421672,22.5362202 130.920429,21.485211 C128.492294,19.7851009 126.020384,20.1415046 124.122825,22.4372844 C122.931232,23.8787523 122.223797,25.5571376 121.76461,27.3508991 C121.258418,29.3290275 121.261356,29.3296147 123.286418,29.4555596 L123.286418,29.4555596 Z" id="Fill-8"></path>
                    <path d="M75.2160904,35.3233028 C75.2160904,37.728 75.2019887,40.1324037 75.2204972,42.5368073 C75.2351864,44.4353761 75.7252203,44.9253578 77.6224859,45.0028624 C78.8375819,45.0521835 80.0535593,45.0850642 81.2692429,45.1164771 C81.7857175,45.1299817 82.0774463,45.317578 82.0486554,45.8953394 C82.0192768,46.4910092 81.6018079,46.4146789 81.236339,46.4026422 C79.2106893,46.3374679 77.1859209,46.2091743 75.1602712,46.1994862 C73.0837966,46.1895046 71.0070282,46.2916697 68.9302599,46.343633 C68.12,46.3638899 67.307096,46.4217248 66.5012429,46.3724037 C66.2803164,46.3586055 65.8857627,45.9837064 65.9124972,45.8363303 C65.9600904,45.5744587 66.2471186,45.1837064 66.4715706,45.1564037 C67.4075706,45.0422018 68.3576723,45.0242936 69.3030734,45.0084404 C70.0628023,44.9955229 70.4226893,44.7069358 70.4191638,43.8890275 C70.3918418,37.1079633 70.399774,30.3266055 70.3774463,23.5455413 C70.3718644,21.9147156 69.9541017,21.4954862 68.3332881,21.3715963 C67.660226,21.3199266 66.9830508,21.3055413 66.3079322,21.3096514 C65.8108475,21.3128807 65.6533785,21.0953394 65.6657175,20.6179817 C65.6774689,20.1605872 65.7394576,19.8000734 66.2991186,19.7962569 C66.9204746,19.7924404 67.5424181,19.8129908 68.1634802,19.7930275 C70.2381921,19.7269725 72.312904,19.6588624 74.3867345,19.5666789 C75.1373559,19.533211 75.3723842,19.7108257 75.3453559,20.477945 C75.3218531,21.1517064 75.2175593,21.8254679 75.2290169,22.4977615 C75.2431186,23.309211 75.5542373,23.4806606 76.2422825,23.0564404 C77.1380339,22.5039266 77.9885424,21.8783119 78.8792994,21.3169908 C79.4025311,20.9867156 79.9557288,20.6990092 80.5130395,20.4283303 C82.6194802,19.4063853 84.4421243,20.0123303 86.1017175,21.445578 C86.8491073,22.091156 87.1229153,22.8873394 86.7636158,23.8446972 C86.4986215,24.5504587 86.2339209,25.2565138 85.9530621,25.9561101 C85.6895367,26.612844 85.3064407,26.5928807 84.8634124,26.1184587 C84.7529492,26.0001468 84.6307345,25.8918165 84.5255593,25.7688073 C82.6341695,23.559633 80.2492203,23.4604037 77.7162034,24.2627523 C76.0601356,24.7873761 75.2428249,26.0785321 75.2196158,28.0290642 C75.1911186,30.4601835 75.2128588,32.8918899 75.2128588,35.3233028 L75.2160904,35.3233028" id="Fill-9"></path>
                    <path d="M19.5919548,59.8223853 L19.5919548,54.2899083 L20.9574689,54.2899083 L20.9574689,62.8659083 C20.136339,63.1351193 19.6242712,62.8926239 19.1821243,62.1331376 C18.2202712,60.4802936 17.1602938,58.8844037 15.9875028,57.2808807 L15.9875028,62.900844 L14.5602938,62.900844 L14.5602938,54.5062752 C15.820339,54.1093578 15.8188701,54.1102385 16.4681356,55.160367 C17.4417401,56.7357064 18.4176949,58.309578 19.3924746,59.8840367 C19.4591638,59.8634862 19.5255593,59.8429358 19.5919548,59.8223853" id="Fill-10"></path>
                    <path d="M158.140814,62.8620917 C157.250644,63.1374679 156.774124,62.8362569 156.35548,62.1181651 C155.392746,60.4664954 154.334237,58.8703119 153.156452,57.274422 L153.156452,62.8958532 L151.735706,62.8958532 L151.735706,54.5115596 C152.985175,54.0908624 152.98635,54.0902752 153.676452,55.2038165 C154.501107,56.5337248 155.322237,57.8659817 156.148655,59.1947156 C156.282915,59.410789 156.436859,59.6148257 156.735051,59.7830459 L156.735051,54.2910826 L158.140814,54.2910826 L158.140814,62.8620917" id="Fill-11"></path>
                    <path d="M142.784068,58.7126606 C142.715322,59.1906055 142.680655,59.6764771 142.572249,60.1453211 C142.122169,62.0929174 140.887096,63.1016514 138.986011,63.1051743 C137.08904,63.1089908 135.730282,62.1005505 135.382147,60.1802569 C135.194418,59.1448073 135.194418,58.0186422 135.383616,56.9834862 C135.74409,55.010055 137.272949,53.9687339 139.271864,54.1158165 C141.270486,54.2628991 142.522305,55.5760734 142.70739,57.735633 C142.734712,58.0568073 142.711209,58.3823853 142.711209,58.7059083 C142.735593,58.7079633 142.759684,58.7103119 142.784068,58.7126606 L142.784068,58.7126606 Z M136.581379,58.5429725 C136.737085,59.2334679 136.819932,59.9641835 137.072588,60.6306055 C137.383119,61.4499817 138.038554,61.8865321 138.960158,61.8862385 C139.879412,61.8862385 140.507232,61.4549725 140.856836,60.637945 C141.423548,59.3127339 141.415616,57.9605138 140.884158,56.6300183 C140.555412,55.8071193 139.909379,55.3500183 139.008339,55.3338716 C138.073514,55.3171376 137.381944,55.7616147 137.051435,56.6215046 C136.823751,57.2136514 136.742079,57.8618716 136.581379,58.5429725 L136.581379,58.5429725 Z" id="Fill-12"></path>
                    <path d="M81.0248136,58.5905321 C81.0903277,58.0849908 81.12,57.5712294 81.2278192,57.074789 C81.6585085,55.0893211 82.9840678,54.0512294 84.9697627,54.112 C86.9254915,54.1718899 88.2372429,55.3303486 88.4990056,57.3263853 C88.5994802,58.0908624 88.6197514,58.8891009 88.5219209,59.6521101 C88.2199096,62.0092477 86.8329492,63.1800367 84.552,63.101945 C82.6144859,63.0353028 81.2301695,61.5271927 81.0909153,59.3244771 C81.0756384,59.0825688 81.088565,58.8391927 81.088565,58.5966972 C81.0674124,58.5946422 81.0459661,58.5925872 81.0248136,58.5905321 L81.0248136,58.5905321 Z M87.2242712,58.6131376 C87.0579887,57.9120734 86.9666215,57.2115963 86.7204294,56.5701284 C86.4160678,55.7768807 85.7597514,55.3508991 84.8942599,55.333578 C83.999096,55.3159633 83.3210395,55.7184587 82.9602712,56.5375413 C82.3544859,57.9129541 82.3627119,59.3150826 82.9655593,60.6881468 C83.3233898,61.5034128 83.98,61.9023853 84.8948475,61.8865321 C85.7841356,61.8709725 86.4081356,61.4341284 86.7160226,60.653211 C86.9675028,60.0146789 87.0571073,59.3124404 87.2242712,58.6131376 L87.2242712,58.6131376 Z" id="Fill-13"></path>
                    <path d="M144.260045,54.3263119 C145.42696,54.3263119 146.562734,54.2335413 147.676475,54.3509725 C148.91948,54.4822018 149.538486,55.156844 149.754712,56.282422 C149.97652,57.4385321 149.598124,58.3195596 148.59191,58.9886239 C148.486147,59.0590826 148.379209,59.1274862 148.306938,59.1744587 C148.980588,60.4186422 149.629266,61.6167339 150.289989,62.8371376 C148.856023,63.1289541 148.846328,63.122789 148.247593,61.9158899 C147.972023,61.3601468 147.696746,60.8038165 147.40913,60.253945 C147.048068,59.5640367 146.484588,59.3218349 145.655819,59.525578 L145.655819,62.8858716 L144.260045,62.8858716 L144.260045,54.3263119 L144.260045,54.3263119 Z M145.664927,58.2599633 C146.579186,58.2112294 147.568655,58.573211 148.072203,57.6496147 C148.309288,57.2148257 148.31722,56.4042569 148.058395,56.0026422 C147.50461,55.1439266 146.529537,55.552 145.664927,55.4941651 L145.664927,58.2599633 L145.664927,58.2599633 Z" id="Fill-14"></path>
                    <path d="M49.2228475,62.8626789 C47.7430508,63.0890275 47.744226,63.0884404 47.1610621,61.908844 C46.8984181,61.3774679 46.6460565,60.8402202 46.360791,60.3208807 C45.9195254,59.5167706 45.5984181,59.3799633 44.5396158,59.546422 L44.5396158,62.9093578 L43.1441356,62.9093578 L43.1441356,54.3357064 C44.3404294,54.3357064 45.4964746,54.2628991 46.6390056,54.3565505 C47.7448136,54.4472661 48.444904,55.1318899 48.6825763,56.2383853 C48.9199548,57.3431193 48.5107119,58.3201468 47.5491525,58.9601468 C47.4389831,59.0332477 47.3267571,59.1028257 47.2262825,59.1671193 C47.8928814,60.4007339 48.5500791,61.6173211 49.2228475,62.8626789 L49.2228475,62.8626789 Z M44.5966102,55.4689174 L44.5966102,58.266422 C45.4964746,58.2033028 46.4847684,58.5761468 46.9988927,57.6457982 C47.2312768,57.2253945 47.2536045,56.4638532 47.0209266,56.0575413 C46.4938757,55.1362936 45.4911864,55.5740183 44.5966102,55.4689174 L44.5966102,55.4689174 Z" id="Fill-15"></path>
                    <path d="M5.88892655,54.2837431 L7.20890395,54.2837431 C7.23446328,54.5861284 7.28058757,54.8946789 7.28352542,55.2038165 C7.30085876,56.9045138 7.27441808,58.6060917 7.32964972,60.3050275 C7.36461017,61.3762936 7.93014689,61.8589358 8.98336723,61.8777248 C10.1699661,61.899156 10.7781017,61.3346055 10.7989605,60.1077431 C10.8262825,58.488367 10.8074802,56.8684037 10.8083616,55.2484404 C10.8086554,54.9542752 10.8083616,54.6598165 10.8083616,54.3034128 L12.159774,54.3034128 C12.1829831,54.4548991 12.2335141,54.6331009 12.2338079,54.8115963 C12.2385085,56.5933211 12.2537853,58.3753394 12.2279322,60.1567706 C12.2023729,61.9111927 11.1312316,63.019156 9.43814689,63.1016514 C7.30350282,63.2058716 6.04257627,62.386789 5.9200678,60.5343119 C5.78375141,58.4731009 5.88892655,56.3960367 5.88892655,54.2837431" id="Fill-16"></path>
                    <path d="M170.774463,62.8882202 C169.45478,63.0479266 169.405424,63.0620183 169.06052,61.8413211 C168.840768,61.0642202 168.481469,60.6813945 167.650938,60.8358165 C167.442056,60.8748624 167.219955,60.8416881 167.003729,60.8416881 C165.199299,60.8416881 165.176678,60.8328807 164.532701,62.4857248 C164.209831,63.3139083 163.604339,62.8233394 163.026463,62.9472294 C164.027977,60.1485505 164.960452,57.4223853 166.020723,54.7470092 C166.142938,54.4387523 166.972294,54.3776881 167.488768,54.2811009 C167.622147,54.2561468 167.89948,54.4989358 167.96235,54.6721468 C168.914215,57.3078899 169.841989,59.9518532 170.771232,62.5958165 C170.796203,62.6668624 170.774463,62.754055 170.774463,62.8882202 L170.774463,62.8882202 Z M168.323119,59.8197431 C167.83426,58.4067523 167.393876,57.1343853 166.953492,55.8623119 C166.897672,55.8725872 166.841559,55.8828624 166.785446,55.8931376 C166.355638,57.1775413 165.925831,58.461945 165.471345,59.8197431 L168.323119,59.8197431 L168.323119,59.8197431 Z" id="Fill-17"></path>
                    <path d="M109.476452,62.955156 C110.479729,60.1494312 111.411616,57.4203303 112.472475,54.7420183 C112.594102,54.4343486 113.428158,54.368 113.946983,54.2849174 C114.088588,54.2620183 114.371209,54.5547156 114.444068,54.7552294 C115.382712,57.3413578 116.295503,59.9365872 117.211232,62.5309358 C117.246192,62.629578 117.245605,62.740844 117.261469,62.8453578 C115.975277,63.1271927 115.860113,63.1142752 115.536949,61.9246972 C115.307503,61.0806606 114.917944,60.6722936 114.025424,60.8366972 C113.842395,60.8704587 113.647616,60.8416881 113.458418,60.8416881 C111.640768,60.8416881 111.616384,60.8322936 110.986215,62.4860183 C110.665107,63.3285872 110.052565,62.8118899 109.476452,62.955156 L109.476452,62.955156 Z M113.434915,55.9186789 C113.369401,55.9110459 113.303887,55.9034128 113.238373,55.8960734 C112.808271,57.1766606 112.378169,58.4572477 111.931028,59.7889174 L114.757831,59.7889174 C114.29365,58.4308257 113.864429,57.1746055 113.434915,55.9186789 L113.434915,55.9186789 Z" id="Fill-18"></path>
                    <path d="M40.2811977,57.9546422 L40.2811977,59.1697615 L37.1188927,59.1697615 L37.1188927,61.7371009 L40.8308701,61.7371009 C41.0100791,62.912 40.9748249,62.9554495 39.9274802,62.9566239 C38.5281808,62.9580917 37.1285876,62.957211 35.6696497,62.957211 L35.6696497,54.2846239 L40.7157062,54.2846239 L40.7157062,55.4533578 L37.1100791,55.4533578 L37.1100791,57.9546422 L40.2811977,57.9546422" id="Fill-19"></path>
                    <path d="M26.4647684,54.2687706 C27.8722938,54.2056514 27.876113,54.2041835 28.2841808,55.4143119 C28.9175819,57.2935046 29.5454011,59.1744587 30.228452,61.2127706 C31.0401808,58.8063119 31.8031412,56.5445872 32.5702147,54.2705321 L33.9894915,54.2705321 C33.4371751,55.8675963 32.9007232,57.4159266 32.3666215,58.964844 C31.9617853,60.1379817 31.5372655,61.3049541 31.167096,62.4886606 C31.0108023,62.9880367 30.6685424,62.9965505 30.2889718,62.9501651 C29.9055819,62.9034862 29.4143729,63.1820917 29.204904,62.5617615 C28.2900565,59.853211 27.3567006,57.1505321 26.4339209,54.4446239 C26.4189379,54.4011743 26.4506667,54.3412844 26.4647684,54.2687706" id="Fill-20"></path>
                    <path d="M50.4793672,62.1466422 C50.6814915,61.7881835 50.8486554,61.4919633 50.9644068,61.2867523 C51.8301921,61.4998899 52.5931525,61.7585321 53.3763842,61.8586422 C54.0385763,61.9434862 54.6179209,61.6537248 54.7974237,60.9294679 C54.9757514,60.2110826 54.5224407,59.8238532 53.9524972,59.5417248 C53.5411977,59.3382752 53.1134463,59.1685872 52.7015593,58.9660183 C51.2846328,58.2687706 50.7611073,57.3202202 51.047548,55.9920734 C51.2866893,54.8844037 52.3266893,54.0908624 53.7574237,54.1448807 C54.5832542,54.1762936 55.3979209,54.4989358 56.2983729,54.7091376 C56.1497175,55.0808073 56.0927232,55.2543119 56.0116384,55.4160734 C55.9420113,55.5549358 55.8447684,55.6802936 55.7622147,55.8082936 C55.1828701,55.6468257 54.6496497,55.4460183 54.0985085,55.3585321 C53.412226,55.2496147 52.7476836,55.3905321 52.5188249,56.1520734 C52.2993672,56.8822018 52.680113,57.4077064 53.3282034,57.7321101 C53.7377401,57.9370275 54.1690169,58.0984954 54.5885424,58.2834495 C55.9170395,58.8691376 56.5098983,59.7501651 56.3368588,60.8783853 C56.1635254,62.0098349 55.1373333,62.9425321 53.8467345,63.0828624 C52.6498531,63.2129174 51.5425763,62.949578 50.4793672,62.1466422" id="Fill-21"></path>
                    <path d="M107.87826,60.9696881 C108.108881,61.2635596 108.30513,61.5139817 108.547209,61.8225321 C107.348859,62.9542752 105.976588,63.3183119 104.436565,63.0182752 C102.909175,62.7202936 102.008723,61.6907156 101.775751,60.2172477 C101.614757,59.1991193 101.574802,58.0996697 101.779864,57.0976881 C102.395638,54.0917431 105.836158,53.1103119 108.318938,55.2361101 C108.106825,55.5205872 107.890305,55.8109358 107.678192,56.0951193 C107.174938,55.8637798 106.735435,55.5986789 106.259209,55.4551193 C104.828768,55.0241468 103.595458,55.6729541 103.290508,57.122055 C103.111006,57.9746055 103.066644,58.9026055 103.194147,59.7624954 C103.47148,61.634055 105.011503,62.3941284 106.752768,61.6140917 C107.117062,61.451156 107.449627,61.2177615 107.87826,60.9696881" id="Fill-22"></path>
                    <path d="M90.7285424,54.2687706 L95.6785311,54.2687706 L95.6785311,55.4700917 L92.179548,55.4700917 L92.179548,57.9393761 L95.3098305,57.9393761 L95.3098305,59.1691743 L92.148113,59.1691743 L92.148113,62.8996697 L90.7285424,62.8996697 L90.7285424,54.2687706" id="Fill-23"></path>
                    <path d="M130.558192,55.431633 L130.558192,57.9546422 L133.695819,57.9546422 L133.695819,59.1953028 L130.52,59.1953028 L130.52,62.8406606 C129.098373,63.1292477 129.051661,63.0954862 129.051073,61.8468991 C129.049898,59.6623853 129.05078,57.4778716 129.05078,55.2933578 L129.05078,54.2860917 L134.071571,54.2860917 L134.071571,55.431633 L130.558192,55.431633" id="Fill-24"></path>
                    <path d="M72.9536497,62.9263853 L71.5173333,62.9263853 C71.5173333,61.9681468 71.5637514,61.0301651 71.4994124,60.1001101 C71.4618079,59.5587523 71.3325424,58.9874495 71.0936949,58.5039266 C70.5093559,57.3208073 69.836,56.1817248 69.2023051,55.0229725 C69.0771525,54.7942752 68.9678644,54.5567706 68.8394802,54.2995963 C70.3627571,54.1528073 70.3607006,54.1536881 70.9588475,55.4339817 C71.3534011,56.2788991 71.7555932,57.1205872 72.2259435,58.1146422 C72.7312542,57.090055 73.155774,56.2266422 73.5826441,55.3641101 C74.1863729,54.1448807 74.1869605,54.1451743 75.6802712,54.3107523 C75.0080904,55.5405505 74.3990734,56.7656514 73.6851751,57.9261651 C73.1255141,58.8362569 72.8567006,59.7654312 72.9433672,60.8290642 C72.9977175,61.4943119 72.9536497,62.1674862 72.9536497,62.9263853" id="Fill-25"></path>
                    <path d="M67.608226,54.3042936 C67.5853107,54.7111927 67.5665085,55.0523303 67.5427119,55.4750826 L65.3413785,55.4750826 L65.3413785,62.8867523 L63.9059435,62.8867523 L63.9059435,55.4921101 L61.6164746,55.4921101 L61.6164746,54.3042936 L67.608226,54.3042936" id="Fill-26"></path>
                    <path d="M118.792384,54.2714128 L120.126169,54.2714128 L120.126169,61.7447339 L123.847254,61.7447339 L123.847254,62.8832294 L118.792384,62.8832294 L118.792384,54.2714128" id="Fill-27"></path>
                    <path d="M161.637446,62.9102385 L160.300136,62.9102385 L160.300136,54.290789 L161.637446,54.290789 L161.637446,62.9102385" id="Fill-28"></path>
                    <path d="M23.3447684,62.9111193 L23.3447684,54.2887339 L24.6838418,54.2887339 L24.6838418,62.9111193 L23.3447684,62.9111193" id="Fill-29"></path>
                    <path d="M126.923774,62.9222752 L125.593514,62.9222752 L125.593514,54.2893211 L126.923774,54.2893211 L126.923774,62.9222752" id="Fill-30"></path>
                    <path d="M58.3128588,54.2790459 L59.6281356,54.2790459 C59.6525198,54.5931743 59.6962938,54.9031927 59.6971751,55.213211 C59.7030508,57.3994862 59.7009944,59.5857615 59.700113,61.7720367 C59.6998192,63.0520367 59.6989379,63.0520367 58.3128588,62.8979083 L58.3128588,54.2790459" id="Fill-31"></path>
                </g>
            </g>
        </g>
    </g>
</svg>