<?xml version="1.0" encoding="UTF-8" standalone="no"?>
<svg width="209px" height="81px" viewBox="0 0 209 81" version="1.1" xmlns="http://www.w3.org/2000/svg" xmlns:xlink="http://www.w3.org/1999/xlink" xmlns:sketch="http://www.bohemiancoding.com/sketch/ns">
    <!-- Generator: Sketch 3.3.3 (12072) - http://www.bohemiancoding.com/sketch -->
    <title>Imported Layers</title>
    <desc>Created with Sketch.</desc>
    <defs></defs>
    <g id="Page-1" stroke="none" stroke-width="1" fill="none" fill-rule="evenodd" sketch:type="MSPage">
        <g id="About---Desktop" sketch:type="MSArtboardGroup" transform="translate(-768.000000, -789.000000)">
            <g id="Imported-Layers-+-Imported-Layers-+-Imported-Layers" sketch:type="MSLayerGroup" transform="translate(225.000000, 771.000000)">
                <g id="Imported-Layers" transform="translate(543.590020, 18.183673)" sketch:type="MSShapeGroup">
                    <path d="M0.148250398,62.7174834 C1.05923835,61.7763211 1.55340634,60.6093013 1.93047801,59.3887606 C2.65078157,57.0557913 2.97870501,54.6494986 3.20000633,52.2287552 C3.93561836,44.1832491 3.62246625,36.116067 3.68558009,28.0566455 C3.70330568,25.7822814 3.68262583,23.5076497 3.69041435,21.2332856 C3.69498003,19.8495067 3.3863936,18.622276 2.04623149,17.8670983 C2.11552244,17.8100987 2.15070505,17.7557751 2.18588766,17.7560427 C5.18795822,17.7571131 8.19002878,17.7581835 11.1920993,17.7696905 C12.1903724,17.7737046 12.7753169,18.2548561 13.1037775,19.2289336 C15.9320835,27.6191134 18.7955722,35.9977862 21.644021,44.3812758 C22.3688902,46.5143452 23.0763024,48.6533018 23.7955317,50.7882444 C23.8734169,51.019454 23.9596277,51.2511988 24.0729641,51.4666198 C24.3573792,52.0077146 24.8238846,52.0417002 25.1735621,51.5289715 C25.3685436,51.2434383 25.5149141,50.9193702 25.6489303,50.5985133 C29.3006706,41.8425193 32.946771,33.084652 36.5966313,24.3281227 C37.2554324,22.7479227 37.9212164,21.1703987 38.5921031,19.5950155 C39.1324651,18.3257711 40.0163275,17.6669307 41.4875516,17.7239303 C43.5740685,17.8050142 45.6659568,17.7514934 47.755428,17.7383809 C48.1531795,17.7359724 48.2568474,17.8066198 48.0489746,18.1922368 C47.3117511,19.5602271 47.0695014,21.0606812 46.9427365,22.5820084 C46.8541086,23.6446628 46.8336973,24.7107961 46.8339659,25.7779997 C46.8361144,31.5863387 46.7912633,37.3949453 46.8323544,43.2030166 C46.8672685,48.1178267 47.2021747,53.016313 47.9866664,57.8751939 C48.2439561,59.468239 48.6817244,61.0131153 49.4240507,62.4573726 C49.5814325,62.7635113 49.5674669,62.8716232 49.1793838,62.8702852 C45.9836746,62.8593134 42.7876968,62.8619895 39.5919876,62.8673415 C39.2919954,62.8678767 39.1851047,62.8127504 39.2890412,62.4779781 C40.1922406,59.57421 40.3681537,56.575175 40.4070962,53.5643655 C40.5228497,44.6424571 40.4307304,35.7202811 40.4549016,26.7981051 C40.4559759,26.414629 40.4277761,26.0287444 40.3794336,25.6482119 C40.3515023,25.4271712 40.2851657,25.1871307 40.0061219,25.1360184 C39.7474894,25.0886525 39.5581479,25.2299473 39.4268173,25.4231572 C39.3005897,25.6091418 39.2041732,25.8184079 39.1158138,26.026336 C33.8655474,38.3743749 28.6176982,50.7232167 23.3690433,63.0720584 C23.3083465,63.2152264 23.2436213,63.3567888 23.138342,63.5944209 C22.8555383,62.871088 22.6025457,62.226163 22.3517018,61.5804352 C18.0586173,50.5233167 13.76607,39.4659305 9.47217987,28.4090796 C9.14989639,27.5789728 8.82063011,26.7515421 8.49136383,25.9241114 C8.45268981,25.8272388 8.40300444,25.7322395 8.34311343,25.6468739 C8.17498888,25.4073686 8.03506414,25.0857089 7.67464379,25.1453845 C7.31341773,25.2050601 7.27178945,25.5508042 7.21028702,25.8360697 C7.04645959,26.5957967 7.109842,27.3702419 7.10742488,28.1374618 C7.0913107,33.4036356 7.11924194,38.670077 7.07412225,43.9359832 C7.05156241,46.5943587 7.0384025,49.2530018 7.04323675,51.9113772 C7.04780243,54.3578105 7.05102527,56.8066523 7.41305704,59.2362265 C7.58145015,60.3647114 7.8395455,61.4659008 8.38071317,62.4838654 C8.46987826,62.6513853 8.63424283,62.8622571 8.25582832,62.8598486 C5.55321282,62.842722 2.85032876,62.9160454 0.148250398,62.8223841 L0.148250398,62.7174834" id="Fill-1" fill="#37939B"></path>
                    <path d="M51.0357366,0.150125693 C51.5930185,0.379194486 52.1919286,0.232280038 52.7674732,0.345744019 C53.475154,0.485165563 54.1755834,0.630206785 54.8231046,0.95266928 C56.3775852,1.72711447 57.1317286,3.02552777 57.274339,4.71624814 C57.4344064,6.60954453 57.0584091,8.32649007 55.6462703,9.71455061 C54.6657228,10.6784593 53.4198286,10.9982457 52.1186091,11.1625544 C50.2329822,11.4009893 48.3352697,11.2575537 46.4431971,11.2998351 C46.1534106,11.3062576 46.0953996,11.1895824 46.0959367,10.9289363 C46.1029195,7.52100284 46.1037252,4.11280173 46.0948624,0.704868225 C46.0940567,0.421743479 46.1928903,0.358588999 46.4585056,0.353504528 C47.4745043,0.333969455 48.4899658,0.292223273 49.5051587,0.251279903 C49.631655,0.246195432 49.791991,0.321927287 49.876859,0.150125693 L51.0357366,0.150125693 L51.0357366,0.150125693 Z M48.5248798,5.73608596 C48.5248798,6.99542911 48.5262227,8.25477227 48.523537,9.51411542 C48.5232684,9.73140965 48.4958743,9.928366 48.8302434,9.91766185 C49.8462421,9.885817 50.8646578,9.96235167 51.8779708,9.81035275 C53.3443606,9.59038248 54.3028854,8.72441681 54.6001919,7.27908907 C54.7954419,6.32963103 54.8137047,5.36786322 54.6415516,4.4117151 C54.3552564,2.82054332 53.5003995,1.99498581 51.9107363,1.72122719 C50.9328745,1.55290445 49.9496413,1.65245303 48.9690939,1.62221381 C48.5839651,1.61043925 48.5117199,1.76859305 48.5173599,2.11540749 C48.5369654,3.32203271 48.5248798,4.52919313 48.5248798,5.73608596 L48.5248798,5.73608596 Z" id="Fill-2" fill="#465661"></path>
                    <path d="M131.634268,0.150125693 C132.174898,0.375983241 132.761991,0.197759157 133.314439,0.346546831 C133.719442,0.455461549 134.144319,0.493728882 134.544488,0.615756183 C136.895277,1.33293418 138.08128,3.18127315 137.905098,5.83081768 C137.774305,7.79743749 137.030099,9.43035545 135.248946,10.4362779 C134.139485,11.0627382 132.886608,11.2115259 131.639371,11.2556805 C130.113627,11.3097365 128.585198,11.2786944 127.058111,11.3014407 C126.758925,11.3057224 126.675668,11.2144695 126.676474,10.9193026 C126.685874,7.52501689 126.685874,4.13073118 126.676205,0.736713069 C126.675399,0.443686985 126.749525,0.35511015 127.053277,0.351363698 C128.087807,0.338251115 129.122068,0.291420462 130.156061,0.252082714 C130.26698,0.247801054 130.409053,0.306673875 130.47539,0.150125693 L131.634268,0.150125693 L131.634268,0.150125693 Z M129.123411,5.76525476 C129.123411,7.02406271 129.128245,8.28287066 129.119382,9.54167861 C129.117771,9.79028247 129.152954,9.92809839 129.456169,9.91873226 C130.244957,9.89384511 131.037238,9.93853494 131.823341,9.88394378 C133.779064,9.74826868 134.831051,8.93047169 135.186906,7.29942695 C135.389945,6.36896878 135.406059,5.42539803 135.247334,4.48637654 C134.96453,2.81545885 134.095708,1.9797324 132.424399,1.71105825 C131.463458,1.5569185 130.498756,1.65325585 129.536471,1.62408704 C129.161816,1.61284768 129.114011,1.7792972 129.117502,2.09373159 C129.132005,3.31748344 129.123411,4.5412353 129.123411,5.76525476 L129.123411,5.76525476 Z" id="Fill-3" fill="#465661"></path>
                    <path d="M23.8535427,0.150125693 C24.3366994,0.278307879 24.8244217,0.391504257 25.3019384,0.537615894 C27.7628413,1.29011758 29.0927978,3.47751047 28.9558273,6.07888634 C28.7764228,9.4911015 26.1871437,11.1901176 23.3370835,11.4692283 C21.5892328,11.6404947 19.9079873,11.420792 18.4311233,10.3394053 C15.8233129,8.4295175 15.167466,3.44058116 19.1122157,1.10627382 C19.8749533,0.655093932 20.6911362,0.358856602 21.5736557,0.249406677 C21.6722208,0.237096905 21.7893171,0.266265712 21.8518938,0.150125693 L23.8535427,0.150125693 L23.8535427,0.150125693 Z M26.4293934,6.08477362 C26.4275134,5.19954048 26.2878573,4.34080011 25.8476717,3.56073523 C25.0645229,2.17294229 23.8675084,1.4493418 22.2636109,1.53631302 C20.7171874,1.62034059 19.6909831,2.47105284 19.1782838,3.90754967 C18.7338012,5.15378024 18.7555553,6.41847547 19.2443519,7.64891742 C20.0723519,9.73355048 22.3267248,10.7014732 24.2840598,9.80607109 C25.8705002,9.08032977 26.3842737,7.70912826 26.4293934,6.08477362 L26.4293934,6.08477362 Z" id="Fill-4" fill="#465661"></path>
                    <path d="M67.9983216,0.150125693 C68.4986667,0.286335991 69.0065317,0.398997162 69.4974769,0.562770645 C71.6514048,1.28208947 72.9843155,3.18475199 73.0662292,5.44118665 C73.2029311,9.20637113 70.4831272,11.2061738 67.3478461,11.4796648 C65.8212967,11.6126639 64.3425527,11.433637 62.9782193,10.6415299 C60.0255656,8.92726044 59.1645316,3.81736721 62.8992599,1.31072307 C63.7127571,0.764811461 64.6003795,0.418799838 65.5653499,0.259308015 C65.677612,0.240843357 65.8191482,0.292490877 65.8911248,0.150125693 L67.9983216,0.150125693 L67.9983216,0.150125693 Z M70.5336182,6.21804028 C70.5279783,4.91775375 70.2822371,3.87624003 69.5796592,2.98886606 C68.7089566,1.88954994 67.5503476,1.39368023 66.1575458,1.54996081 C64.7561498,1.7075794 63.8078307,2.50717935 63.3209141,3.81014191 C62.8377575,5.10266793 62.8498431,6.41847547 63.3716737,7.6976213 C64.2493591,9.84888769 66.6646051,10.7627544 68.6262372,9.69046628 C70.0708729,8.90076767 70.501927,7.56355183 70.5336182,6.21804028 L70.5336182,6.21804028 Z" id="Fill-5" fill="#465661"></path>
                    <path d="M9.94647371,0.150125693 C10.4562187,0.2582376 10.9635466,0.379462089 11.4765145,0.470447358 C11.9167,0.548320043 12.1753325,0.748755237 12.1355842,1.23124476 C12.1226929,1.38699013 12.1350471,1.54621435 12.148207,1.70276254 C12.169424,1.95404244 12.1699611,2.17508312 11.9169686,2.34634951 C11.6475933,2.52858765 11.463086,2.38113799 11.2498418,2.26125152 C10.1626722,1.6503122 8.99224606,1.37628598 7.75682608,1.55263684 C5.17775258,1.92085958 4.28744448,3.87650764 4.397558,6.08878767 C4.41904357,6.52177051 4.49451161,6.96010542 4.60784797,7.37917286 C5.05635914,9.03671037 6.27459067,9.99687255 8.04822405,10.1146182 C8.66351692,10.155294 9.27370696,10.1111393 9.88121131,9.99259089 C10.1669693,9.93692931 10.2784257,9.82640897 10.2714429,9.51170699 C10.2472716,8.44503852 10.2829914,7.37676443 10.2515687,6.31036356 C10.2397517,5.90253548 10.3705451,5.80325449 10.7545995,5.82707123 C11.2793844,5.85971888 11.8081979,5.84928234 12.3343257,5.82974726 C12.6139066,5.81931072 12.6931346,5.91538046 12.6912546,6.18780105 C12.6799747,7.65721314 12.6845404,9.12689282 12.6874947,10.5965725 C12.6877632,10.7846979 12.6732605,10.917697 12.4345021,10.9712177 C10.331871,11.4411299 8.21876572,11.7440573 6.07558062,11.2840465 C3.90204716,10.8173456 2.46627428,9.5344533 1.99412899,7.33956751 C1.5150009,5.11283687 2.07926555,3.17886471 3.86444742,1.68028382 C4.69781877,0.980232464 5.68024623,0.57320719 6.74163313,0.338518719 C6.9333918,0.296237329 7.16409305,0.335307474 7.31234345,0.150125693 L9.94647371,0.150125693" id="Fill-6" fill="#465661"></path>
                    <path d="M118.447502,63.9872631 C115.771207,64.0766428 113.016489,63.6479416 110.342342,62.7209623 C108.096563,61.942503 106.070205,60.7907366 104.268372,59.2287336 C101.456449,56.7908636 99.6838899,53.7112799 98.5677148,50.2201216 C98.0380956,48.5631193 97.720915,46.8614272 97.4886023,45.1332423 C97.2176156,43.1184538 97.2251355,41.0975105 97.3191349,39.0899473 C97.4297856,36.7294148 97.8527826,34.3956427 98.5784576,32.1279686 C99.3602636,29.6836762 100.415205,27.3771996 101.918657,25.283468 C103.757016,22.7233031 106.026697,20.661684 108.828683,19.1748777 C111.235604,17.8976051 113.787283,17.1587512 116.48587,16.8277254 C118.123607,16.626755 119.761076,16.5542344 121.399887,16.6465576 C124.725047,16.8338803 127.940362,17.4921854 130.917724,19.0619489 C134.000903,20.687374 136.382846,23.0350615 138.1264,26.0330261 C139.55143,28.483741 140.408167,31.1413137 140.865004,33.920646 C141.066699,35.1494824 141.217367,36.3898257 141.248252,37.6478308 C141.270007,38.5338667 141.342252,39.4223111 141.307606,40.3096851 C141.098391,45.6467739 139.884188,50.6825409 136.793489,55.150988 C134.988433,57.7603919 132.68142,59.812645 129.898771,61.3398594 C127.604382,62.598935 125.141061,63.3447466 122.564674,63.7568563 C121.2511,63.9669253 119.929738,64.0070658 118.447502,63.9872631 L118.447502,63.9872631 Z M133.890789,40.993145 C133.913081,39.1972564 133.752207,37.1605244 133.421867,35.138243 C132.894396,31.9077308 132.00194,28.7963022 130.266443,25.9819138 C127.931499,22.1958562 124.603117,19.9924071 120.080942,19.7721692 C116.901347,19.6172267 113.944665,20.3033626 111.363712,22.2515178 C108.773627,24.2060954 107.185575,26.8561752 106.146479,29.8635059 C105.009893,33.1534261 104.65189,36.55574 104.718495,40.0209407 C104.776774,43.0544966 105.128869,46.0463063 105.944246,48.9701446 C106.924257,52.4845844 108.441675,55.7003784 111.307581,58.1254034 C112.243814,58.9175105 113.292041,59.5222949 114.423793,59.9860522 C116.275849,60.745244 118.216801,60.9462144 120.195622,60.8378348 C123.260537,60.6697797 125.970136,59.6221111 128.242503,57.5313232 C129.896623,56.0094607 131.071615,54.1571077 131.934529,52.1051223 C133.394741,48.6332315 133.9206,44.9887363 133.890789,40.993145 L133.890789,40.993145 Z" id="Fill-7" fill="#37939B"></path>
                    <path d="M50.6702135,41.852153 C50.6581278,36.589458 51.4987506,32.1076308 53.6870554,27.9488012 C56.9555469,21.737451 62.0943569,18.05228 69.0430572,16.9446682 C73.3342616,16.2609407 77.5873292,16.4985728 81.707992,17.9460414 C87.3611127,19.9319286 91.0488413,23.8964779 93.0682159,29.4554102 C94.5123144,33.4306636 94.8676319,37.550423 94.5888567,41.7419003 C94.32727,45.6759427 93.4060764,49.4371131 91.5131981,52.9197081 C88.2202667,58.9779889 83.1413477,62.5799351 76.3169952,63.664533 C71.9003687,64.3664576 67.526982,64.1149101 63.3058742,62.5518367 C57.6234794,60.4476686 54.0278701,56.3329936 52.1014207,50.6913718 C51.0577593,47.6353372 50.6441622,44.4762752 50.6702135,41.852153 L50.6702135,41.852153 Z M58.0757506,39.3645087 C58.0548021,40.7659495 58.1466529,42.1598973 58.2970519,43.5514367 C58.652638,46.8370753 59.372673,50.0271793 60.8224115,53.0205947 C61.920861,55.2893391 63.3837594,57.2722827 65.4823619,58.7339343 C67.9483676,60.4514151 70.7162455,61.0107069 73.6713164,60.8319476 C76.6422329,60.6521179 79.2766318,59.6453926 81.4909878,57.6330126 C83.9301365,55.4159157 85.3363668,52.5934991 86.2145892,49.4828734 C87.2034624,45.9807433 87.4304036,42.4034167 87.1884225,38.7846114 C86.9716868,35.5441979 86.4291763,32.3698824 85.2643901,29.3242844 C84.2250259,26.6065009 82.7946244,24.1218002 80.439538,22.3288553 C76.4931768,19.3250034 72.1058245,19.0480335 67.5804273,20.6822895 C64.0691489,21.9504636 61.8255188,24.6291769 60.2968208,27.9372942 C58.6212153,31.5627896 58.071722,35.4122692 58.0757506,39.3645087 L58.0757506,39.3645087 Z" id="Fill-8" fill="#37939B"></path>
                    <path d="M178.474142,62.8641303 L177.173728,62.8641303 C175.769378,62.8641303 174.363954,62.828539 172.960678,62.872426 C170.819641,62.9398621 169.12443,62.0966428 167.888204,60.4032464 C165.989686,57.8029409 164.148105,55.1611569 162.290409,52.5314151 C160.301114,49.7159562 158.295437,46.9112015 156.34589,44.0684471 C155.053534,42.183714 153.354294,41.0651304 151.043253,40.9190188 C150.776026,40.9021598 150.587759,40.8497094 150.590445,41.248439 C150.625627,46.3379943 150.524914,51.4283525 150.653021,56.5168374 C150.705392,58.6001325 150.940391,60.6705825 151.987006,62.5464847 C152.153788,62.8451304 151.99936,62.8646655 151.765705,62.8646655 C148.746177,62.8635951 145.72665,62.8627923 142.707122,62.8660035 C142.434793,62.8662711 142.295405,62.8301446 142.478301,62.5199919 C143.830012,60.2287688 144.187478,57.7071388 144.187478,55.1054953 C144.188015,45.2748047 144.189895,35.4443817 144.185598,25.613691 C144.184792,23.7942533 144.100193,21.981238 143.652487,20.2032788 C143.472277,19.4877064 143.231907,18.7946128 142.862893,18.1574483 C142.65502,17.7983241 142.744453,17.7448034 143.119108,17.7378457 C145.205088,17.6995783 147.289456,17.6184944 149.373556,17.5015516 C152.909543,17.3032572 156.44177,17.0059495 159.988231,17.0353859 C161.808864,17.0503717 163.585183,17.3019192 165.284691,17.9883227 C168.70573,19.370496 170.762436,22.4203757 170.83495,26.1018002 C170.914178,30.1292364 169.169818,33.2711718 166.19917,35.8388296 C164.582919,37.2359886 162.758794,38.3066712 160.789105,39.1306231 C160.481593,39.2593405 160.334417,39.3270442 160.600838,39.6909853 C164.829466,45.4669442 169.041173,51.2552129 173.257447,57.0402703 C174.65562,58.9584538 176.2947,60.6593432 178.023482,62.2788809 C178.18731,62.4327531 178.35248,62.5850196 178.517113,62.7380889 C178.502879,62.7801027 178.488376,62.8221165 178.474142,62.8641303 L178.474142,62.8641303 Z M150.640399,29.6430004 L150.59877,29.6430004 C150.59877,32.3016435 150.599039,34.9600189 150.597965,37.6183944 C150.597965,37.8798432 150.545593,38.1174753 150.958922,38.1586863 C152.903366,38.3535018 154.842975,38.422276 156.773453,38.0449547 C160.005151,37.4131423 162.429797,35.7478443 163.638628,32.5981484 C164.452125,30.4795297 164.55069,28.2752777 164.303069,26.0399838 C163.961449,22.9595972 162.318877,21.1000189 159.296664,20.4047844 C156.566923,19.7769861 153.789108,19.8974078 151.019887,19.88376 C150.783815,19.8826896 150.723387,19.9934775 150.716404,20.2043492 C150.70029,20.6929936 150.645501,21.1811029 150.644158,21.6694797 C150.636639,24.3273199 150.640399,26.9851602 150.640399,29.6430004 L150.640399,29.6430004 Z" id="Fill-9" fill="#37939B"></path>
                    <path d="M207.863978,56.057897 C207.69451,56.9171726 207.543574,57.680646 207.393444,58.4441195 C207.15388,59.6609136 206.900082,60.8752994 206.686032,62.0963752 C206.630169,62.4153588 206.522204,62.5277524 206.198578,62.5529071 C204.292271,62.7011596 202.385965,62.8585106 200.473212,62.860919 C193.625763,62.8694824 186.778313,62.8643979 179.930595,62.8641303 C179.280119,62.8641303 179.276628,62.8611866 179.583066,62.2721908 C180.499962,60.5105555 180.774172,58.5947804 180.930479,56.6541181 C181.038444,55.3112826 181.034147,53.964433 181.033342,52.6178511 C181.029044,43.5380565 181.041667,34.4585295 181.022599,25.378735 C181.01857,23.4570726 180.912485,21.5356778 180.332106,19.6763671 C180.159685,19.1234978 179.946709,18.5888255 179.659877,18.0865333 C179.523443,17.8478308 179.547078,17.7311556 179.847338,17.7445357 C179.952349,17.749085 180.057897,17.7445357 180.163176,17.7445357 C187.976402,17.7445357 195.789628,17.7488174 203.602853,17.7343668 C204.073118,17.733564 204.285288,17.8098311 204.301403,18.337278 C204.349208,19.9244357 204.451802,21.5097202 204.53291,23.0944695 C204.344105,23.1482579 204.268637,22.9994702 204.163895,22.9218651 C202.418461,21.6293391 200.398281,21.0943992 198.287862,20.834556 C194.807469,20.4058548 191.309082,20.6846979 187.819826,20.5982619 C187.427983,20.5886282 187.456183,20.802176 187.456451,21.0588079 C187.459405,23.2630599 187.458063,25.4675794 187.458063,27.6718313 C187.458063,30.7859359 187.463703,33.8997729 187.450543,37.0138776 C187.448931,37.376213 187.546422,37.4907474 187.918659,37.4880714 C191.866632,37.4583673 195.815142,37.4554237 199.759623,37.2675659 C201.002831,37.2081579 202.243354,37.0984403 203.485488,37.0154832 C203.654956,37.0042438 203.826303,37.0138776 204.088696,37.0138776 C203.600705,37.8164211 202.969298,38.3738397 202.24416,38.8311745 C200.671685,39.8223787 198.908794,40.2639249 197.101321,40.5673875 C194.109456,41.0696797 191.088049,41.0100041 188.071475,41.0193702 C187.622696,41.0207082 187.443023,41.0892148 187.444634,41.6054224 C187.465583,47.5534505 187.462091,53.5017462 187.4492,59.4497743 C187.448125,59.8640249 187.520102,60.019235 187.982579,60.0149534 C190.949467,59.9876578 193.919578,60.0730234 196.883243,59.9681227 C200.80597,59.8292364 204.460127,58.8037789 207.552974,56.2438816 C207.616357,56.1916989 207.695048,56.1579808 207.863978,56.057897" id="Fill-10" fill="#37939B"></path>
                    <path d="M91.2822283,74.3491472 C91.2822283,72.4946533 91.2806169,70.6404271 91.2841083,68.7859332 C91.2846454,68.5785403 91.1919889,68.3256548 91.5819519,68.3227112 C93.7901309,68.3053169 95.9977727,68.0508258 98.2064887,68.2844438 C99.6417245,68.4361752 100.994778,68.8065387 102.091079,69.8247709 C102.983536,70.6540749 103.424527,71.7025463 103.558006,72.8781295 C103.803747,75.0392972 103.417544,77.0262549 101.800487,78.6275956 C100.691026,79.7266441 99.2646528,80.0691769 97.7829545,80.2433869 C95.7364545,80.4834275 93.6792116,80.3255413 91.6276087,80.3779916 C91.2819597,80.3870901 91.2776626,80.2201054 91.2787369,79.9648115 C91.2851826,78.0929234 91.2822283,76.2210353 91.2822283,74.3491472 L91.2822283,74.3491472 Z M93.9340841,74.2974997 C93.9340841,75.6791377 93.9362327,77.0607758 93.9319356,78.4421462 C93.9311299,78.6864684 93.9201185,78.8794107 94.2740932,78.8729882 C95.3435372,78.8531856 96.4145926,78.9000162 97.4802766,78.7688904 C99.2157731,78.5553426 100.296766,77.604279 100.638923,75.945671 C100.859419,74.8763265 100.869625,73.7938694 100.671957,72.7178348 C100.366862,71.0584241 99.4252574,70.1515151 97.753949,69.8520665 C96.6549624,69.6551102 95.5489929,69.7739262 94.4467834,69.7361941 C94.0425862,69.7225463 93.9139414,69.8373483 93.9230728,70.2577538 C93.9526154,71.6038005 93.9340841,72.9509177 93.9340841,74.2974997 L93.9340841,74.2974997 Z" id="Fill-11" fill="#465661"></path>
                    <path d="M33.4643045,74.2969645 C33.452756,77.4726179 31.4336501,79.8272631 28.1514614,80.4411461 C26.2846344,80.790369 24.4366073,80.7347074 22.7140021,79.8385025 C18.8425719,77.8245168 18.4413289,72.3193729 21.9526074,69.6280822 C24.2563971,67.8627004 28.1023132,67.5801108 30.6126329,69.0372131 C32.6231446,70.204233 33.4524874,72.0391918 33.4643045,74.2969645 L33.4643045,74.2969645 Z M22.3691588,74.1690499 C22.3562674,75.1302825 22.5364776,76.0524449 23.0172171,76.8879038 C23.9107481,78.4405406 25.2750814,79.2350561 27.0672461,79.0675362 C28.7315717,78.912326 29.8974322,77.9888255 30.4074458,76.3762454 C30.9018823,74.8129044 30.7974088,73.2666901 30.0150656,71.8085174 C28.7624572,69.47421 25.6102563,68.8654115 23.7394007,70.6077794 C22.7169564,71.5596459 22.3893015,72.8155102 22.3691588,74.1690499 L22.3691588,74.1690499 Z" id="Fill-12" fill="#465661"></path>
                    <path d="M177.305596,68.1161211 C178.513085,68.1193323 179.679482,68.3339505 180.767458,68.8675524 C183.015653,69.9698121 184.037023,72.1668388 183.934698,74.5696527 C183.771408,78.4151183 180.830303,80.2134153 177.889198,80.5575537 C176.58583,80.7100878 175.29025,80.6469334 174.044356,80.2094013 C171.803143,79.4226463 170.498163,77.8084606 170.123509,75.5017164 C169.743751,73.1647331 170.457341,71.1916908 172.346459,69.6864198 C173.799152,68.5290337 175.479054,68.097924 177.305596,68.1161211 L177.305596,68.1161211 Z M181.156346,74.6587647 C181.154198,73.6627436 181.002456,72.8213975 180.61115,72.0466847 C179.869092,70.5775402 178.688192,69.7142506 177.010169,69.6345047 C175.406809,69.5585052 174.152321,70.204233 173.439537,71.6466171 C172.515926,73.515294 172.583606,75.4043087 173.678296,77.1924368 C174.527512,78.5799622 176.245552,79.3386187 177.740142,79.0587052 C179.482889,78.7322287 180.573819,77.7024895 180.995205,75.9826004 C181.111764,75.5068009 181.179175,75.0227058 181.156346,74.6587647 L181.156346,74.6587647 Z" id="Fill-13" fill="#465661"></path>
                    <path d="M203.900428,76.6454548 C203.900428,74.7462711 203.905263,72.8973969 203.89828,71.0485228 C203.895325,70.262303 203.874377,69.4758157 203.84752,68.6898635 C203.838389,68.4201189 203.932388,68.3347533 204.20794,68.3211056 C205.790084,68.2418949 205.792769,68.2346695 205.789009,69.7766022 C205.780952,73.116832 205.764838,76.4570618 205.766181,79.7975591 C205.76645,80.1323314 205.654725,80.2407109 205.338887,80.3731748 C204.477316,80.7347074 203.948502,80.465498 203.347712,79.7847142 C201.112945,77.2515772 198.802709,74.7848061 196.520405,72.2931477 C196.407337,72.1697824 196.291047,72.0490931 196.148168,71.8976294 C196.148168,73.2806055 196.139037,74.6020327 196.150854,75.9229247 C196.162939,77.3034924 196.189259,78.68406 196.223636,80.06436 C196.230619,80.3383863 196.111105,80.3886958 195.878793,80.3731748 C195.374688,80.3397243 194.732001,80.5770888 194.403271,80.2837951 C194.091194,80.0052196 194.323238,79.3605622 194.323506,78.8775375 C194.325655,75.5367725 194.339352,72.1962752 194.330221,68.8555102 C194.329146,68.4605271 194.42046,68.3516124 194.84104,68.3082606 C195.869393,68.2022895 196.573313,68.5437519 197.265954,69.3441546 C199.30386,71.699335 201.447314,73.9637978 203.549676,76.2635843 C203.665967,76.3909636 203.783063,76.5178078 203.900428,76.6454548" id="Fill-14" fill="#465661"></path>
                    <path d="M69.4620257,71.9492769 C69.4620257,73.3087039 69.4528943,74.6641168 69.4647114,76.0192621 C69.4757227,77.294929 69.4969397,78.5708636 69.5391052,79.8457278 C69.5519965,80.2364292 69.4727685,80.437132 69.0296287,80.376386 C68.5676891,80.3129639 67.9459505,80.5786944 67.677381,80.2607812 C67.4488283,79.9902338 67.5927815,79.3950831 67.5954672,78.9439032 C67.6153414,75.5873496 67.6489126,72.2307961 67.6545525,68.8742425 C67.6553583,68.4492877 67.7606375,68.3553588 68.1954516,68.3061197 C69.2219245,68.1899797 69.8928113,68.5739911 70.5666523,69.3481687 C72.646455,71.7367996 74.820257,74.0440789 76.9548479,76.3850764 C77.0338073,76.4715124 77.0872527,76.5812299 77.2346974,76.6087931 C77.2346974,75.2908447 77.2438287,73.9726287 77.2320117,72.6546804 C77.2201946,71.3268307 77.1944119,69.9992485 77.1589608,68.6716664 C77.1511722,68.3837248 77.2628972,68.3122746 77.5263639,68.3237816 C77.9117612,68.340373 78.2998443,68.3500068 78.6838987,68.3213732 C79.0308906,68.2956832 79.0854102,68.4468793 79.0843359,68.7506095 C79.0698332,72.4579916 79.0620447,76.1656413 79.0701018,79.873291 C79.0706389,80.1925422 78.9449483,80.2854007 78.6720817,80.3539073 C77.4645929,80.6571023 77.4747986,80.6554967 76.6508271,79.7507285 C74.352946,77.2272253 72.0472763,74.7106798 69.7421437,72.1938667 C69.6537844,72.0975294 69.5898648,71.9570374 69.4620257,71.9492769" id="Fill-15" fill="#465661"></path>
                    <path d="M155.908122,4.98759832 C157.054377,5.27607515 157.821411,5.88862008 158.172432,6.93441546 C158.685937,8.46377078 157.939851,10.1170266 156.454392,10.7766698 C155.624512,11.1448926 154.74629,11.2893986 153.844165,11.2934126 C152.527637,11.2995675 151.21084,11.2840465 149.894849,11.3027788 C149.55296,11.3078632 149.447413,11.2166104 149.448487,10.8665847 C149.461378,7.50869307 149.455201,4.15053386 149.458692,0.792374645 C149.458961,0.60478443 149.365767,0.352434113 149.726993,0.35725098 C151.514055,0.380800108 153.301386,0.136210299 155.088448,0.360194621 C155.490496,0.410504122 155.879922,0.509249899 156.249742,0.675431815 C157.86868,1.40304636 158.103409,3.40097581 156.692882,4.4764752 C156.471581,4.64506555 156.22584,4.78207866 155.908122,4.98759832 L155.908122,4.98759832 Z M151.847082,8.0059008 C151.847082,8.54779835 151.850842,9.0896959 151.844933,9.63132585 C151.842784,9.82962022 151.869373,9.96609812 152.122365,9.96208407 C152.8236,9.95084471 153.528327,10.0016894 154.223654,9.89545074 C155.183253,9.74880389 155.742683,9.12100554 155.77706,8.20098392 C155.819763,7.05563995 155.391125,6.42650358 154.367607,6.18271658 C153.627966,6.00663333 152.870063,6.04918232 152.116457,6.04329504 C151.854333,6.04115421 151.844127,6.18887147 151.84547,6.38020814 C151.849499,6.92210569 151.846813,7.46400324 151.847082,8.0059008 L151.847082,8.0059008 Z M151.846813,3.156386 C151.846813,3.59204487 151.854601,4.02770374 151.84359,4.46309501 C151.838219,4.67637519 151.89247,4.78074064 152.13284,4.77244492 C152.742761,4.75103663 153.356174,4.80937424 153.960187,4.66567104 C154.756227,4.4762076 155.116916,3.92895797 155.070185,2.96611975 C155.031242,2.1665198 154.618182,1.7289877 153.818919,1.6141857 C153.259489,1.53390458 152.70167,1.62970672 152.143851,1.60107312 C151.913955,1.58903095 151.836339,1.67707258 151.843322,1.90239492 C151.856213,2.32012434 151.847082,2.73838897 151.846813,3.156386 L151.846813,3.156386 Z" id="Fill-16" fill="#465661"></path>
                    <path d="M32.896817,5.83536694 C32.896817,4.15615353 32.8938628,2.47667252 32.9008456,0.797459116 C32.9016513,0.618432221 32.7853607,0.35511015 33.1578666,0.35725098 C35.0679334,0.369025544 36.9780001,0.143167996 38.8880668,0.365011488 C40.8454018,0.592474659 42.0190508,2.0945344 41.6543333,3.94421138 C41.4416262,5.02292202 40.7105798,5.69032572 39.7163353,6.04142181 C39.1926247,6.2266036 39.1988018,6.4208839 39.4378287,6.84450061 C39.9720136,7.78967698 40.4941128,8.73859981 41.2345591,9.54569266 C41.6113622,9.95646439 42.0536962,10.243068 42.6190352,10.3399405 C42.7898454,10.3691093 43.1422087,10.2072091 43.1016547,10.5406433 C43.0648606,10.8457116 43.1419401,11.2912718 42.6585149,11.3894824 C41.351924,11.6544101 40.1468523,11.5008055 39.1381051,10.5352913 C38.2472598,9.68270577 37.7063607,8.6013191 37.1541817,7.52849574 C36.7274247,6.69972699 36.4534837,6.5640519 35.533633,6.71578321 C35.2529778,6.76181106 35.3249544,6.95234491 35.3244173,7.10809028 C35.3190459,8.35003919 35.307766,9.59225571 35.3295201,10.8336694 C35.3359658,11.1986809 35.2357893,11.3263279 34.8624776,11.3027788 C34.3728753,11.2722719 33.8781702,11.2706663 33.3888365,11.303314 C33.0053191,11.3287363 32.8801657,11.2267793 32.8860742,10.8202892 C32.9113198,9.15900527 32.896817,7.4969185 32.896817,5.83536694 L32.896817,5.83536694 Z M35.321463,3.47831329 C35.321463,4.01887282 35.3190459,4.55943236 35.3230744,5.09972429 C35.3241487,5.24744155 35.2798347,5.44359508 35.5255759,5.43984863 C36.3619015,5.42700365 37.2116556,5.54796054 38.0243471,5.2656386 C38.8354272,4.98385187 39.2433843,4.23081497 39.1560992,3.24630085 C39.0771398,2.35625084 38.6305086,1.89490201 37.7168349,1.71587512 C37.0217769,1.57966482 36.3218846,1.64549534 35.6244095,1.61525612 C35.3442914,1.60294634 35.3131374,1.73674821 35.3179716,1.96153534 C35.3287144,2.46703879 35.321463,2.97280984 35.321463,3.47831329 L35.321463,3.47831329 Z" id="Fill-17" fill="#465661"></path>
                    <path d="M44.761146,72.6843844 C44.761146,71.3902527 44.7721573,70.0963887 44.7541632,68.8025247 C44.7493289,68.4503582 44.8304369,68.2999649 45.2163714,68.3197675 C45.8115215,68.350542 46.4098945,68.3446547 47.0055818,68.3216408 C47.3539165,68.307993 47.4471102,68.4284147 47.4449616,68.7706798 C47.4304588,71.1138181 47.5169382,73.4604352 47.415419,75.7990242 C47.3087968,78.2612461 48.6591646,78.8012704 50.5958197,78.7710312 C51.1418216,78.7624679 51.6722465,78.6361589 52.1747402,78.4124422 C53.1566305,77.9751777 53.6577813,77.2114367 53.6690612,76.1490499 C53.6943067,73.7545317 53.7227751,71.3597459 53.701021,68.9652277 C53.6959182,68.411288 53.8637741,68.2461765 54.3770106,68.3243168 C54.5314381,68.3475983 54.6925798,68.324852 54.8502301,68.3283309 C55.7698123,68.3481335 55.6696359,68.1771347 55.6494931,69.1330153 C55.6022249,71.3506474 55.5383053,73.5680119 55.4563916,75.7848412 C55.403752,77.2020706 55.1077883,78.5293851 53.8691455,79.4475335 C53.0765967,80.0349236 52.1838715,80.3664847 51.2137983,80.5013569 C50.0605606,80.6616516 48.90222,80.6790458 47.7656337,80.417597 C45.7199393,79.9471496 44.7853172,78.6819192 44.7632945,76.4086255 C44.7514775,75.1674794 44.761146,73.9257981 44.761146,72.6843844" id="Fill-18" fill="#465661"></path>
                    <path d="M120.22597,7.81563455 C120.22597,5.95070415 120.230267,4.1176186 120.223284,2.28453305 C120.221404,1.74397351 120.194816,1.20287877 120.165542,0.66285444 C120.153456,0.435926477 120.231878,0.333701852 120.462311,0.35939181 C120.496957,0.363405866 120.532408,0.360462225 120.56759,0.359659413 C121.941592,0.322997702 121.943472,0.322997702 121.941324,1.67734018 C121.937027,4.66700906 121.92333,7.65641033 121.933804,10.6458116 C121.935415,11.0410623 121.829062,11.1834275 121.431579,11.3204406 C120.737864,11.5599459 120.318626,11.4151723 119.825533,10.8588242 C117.759696,8.52853088 115.632088,6.25282876 113.528651,3.95571834 C113.447811,3.86767671 113.383355,3.76464928 113.309229,3.6656359 C113.064831,3.85643736 113.152922,4.06383025 113.155071,4.23589945 C113.182733,6.45460197 113.210933,8.6733045 113.266258,10.8914718 C113.274584,11.2243709 113.194282,11.2979619 112.874952,11.3027788 C111.510619,11.3236518 111.506053,11.3338208 111.511693,9.96368969 C111.524316,6.92237329 111.550099,3.8813245 111.548219,0.840008109 C111.54795,0.4447574 111.662629,0.379997297 112.04373,0.34146236 C112.956598,0.248603865 113.581022,0.554207325 114.193898,1.25961076 C116.029302,3.37260981 117.95226,5.40960941 119.843527,7.47390458 C119.955789,7.59673469 120.040657,7.75649412 120.22597,7.81563455" id="Fill-19" fill="#465661"></path>
                    <path d="M85.68873,7.82954994 C85.68873,6.6858116 85.6992042,5.57338289 85.6860443,4.46122179 C85.6718102,3.23880795 85.6454903,2.0161265 85.6033249,0.794515475 C85.5915079,0.457869982 85.6828215,0.351096094 86.0359905,0.350560887 C87.3678269,0.347617246 87.3678269,0.333701852 87.3678269,1.67573456 C87.3678269,4.68253007 87.360307,7.68959319 87.3774954,10.6966563 C87.3793754,11.063541 87.2558334,11.1775402 86.9214643,11.3014407 C86.2070693,11.5661008 85.7496953,11.4240032 85.2224933,10.8251061 C83.1647133,8.48785512 81.0330767,6.21536424 78.9250742,3.92226787 C78.8356405,3.82486012 78.7765552,3.68383295 78.5933908,3.64690364 C78.5933908,4.32394107 78.5837223,4.99187998 78.5952708,5.65955129 C78.6245449,7.37114475 78.6495218,9.08300581 78.7075328,10.7937965 C78.7223042,11.2265117 78.5694881,11.3102717 78.1730794,11.3041168 C76.9537736,11.2856521 76.9518936,11.3011731 76.9537736,10.0822381 C76.9583393,7.04038654 76.9739163,3.99880254 76.9604879,0.956950939 C76.9583393,0.484362752 77.0934298,0.380532504 77.571215,0.335307474 C78.4472889,0.252350318 79.0120907,0.579362076 79.5795782,1.22294905 C81.4762165,3.37555345 83.43758,5.47196108 85.3731608,7.59057981 C85.4534631,7.67835383 85.5133541,7.78833896 85.68873,7.82954994" id="Fill-20" fill="#465661"></path>
                    <path d="M124.808304,80.3710339 C123.866699,80.3710339 123.007813,80.3576537 122.149734,80.3785268 C121.85377,80.3854845 121.812142,80.1968239 121.740165,80.0041492 C121.392636,79.0726206 121.030604,78.1459089 120.707784,77.205817 C120.601162,76.8953967 120.469831,76.7701581 120.125525,76.7760454 C118.862979,76.7979889 117.59936,76.7987917 116.336546,76.7755102 C115.994388,76.7690877 115.846675,76.8905798 115.730921,77.1932396 C115.369695,78.138416 114.968452,79.068339 114.607763,80.0137829 C114.503558,80.2870064 114.369274,80.3894986 114.07331,80.3785268 C113.444051,80.3549777 112.81345,80.3713015 112.102009,80.3713015 C112.587046,79.3605622 113.044688,78.4060197 113.5026,77.4517448 C114.899161,74.5412867 116.302169,71.6337721 117.683153,68.7158211 C117.828449,68.408612 117.99738,68.3216408 118.317515,68.3211056 C119.838961,68.3186971 119.842453,68.3087958 120.423369,69.7118421 C121.83121,73.1130856 123.23556,76.5153994 124.640448,79.9177132 C124.69255,80.0440222 124.73579,80.1740776 124.808304,80.3710339 L124.808304,80.3710339 Z M118.318589,70.8649466 C117.695508,72.4055413 117.117009,73.8356156 116.512459,75.3307177 C117.620577,75.3307177 118.649467,75.329112 119.678357,75.3320557 C119.874144,75.3325909 119.975126,75.3010137 119.885961,75.0652548 C119.36977,73.6996729 118.864054,72.3303446 118.318589,70.8649466 L118.318589,70.8649466 Z" id="Fill-21" fill="#465661"></path>
                    <path d="M1.048227,74.3301473 C1.048227,72.4941181 1.06004406,70.6580889 1.03882706,68.8225949 C1.03426138,68.4211893 1.16129478,68.3277956 1.54561783,68.3299365 C4.21278214,68.3454575 6.88021503,68.3465279 9.54737934,68.3291337 C9.94620514,68.3264576 10.0506787,68.440992 10.0450387,68.8314259 C10.0289246,69.9609812 10.0466502,69.9612488 8.93772644,69.9612488 C7.34081183,69.9612488 5.74389721,69.9703473 4.14725117,69.9537559 C3.81046494,69.9502771 3.6952486,70.0329666 3.70545424,70.3845979 C3.73096835,71.2580565 3.7323112,72.1331207 3.70518567,73.0065793 C3.69390575,73.3667739 3.82389342,73.4352804 4.15235399,73.4318016 C5.62626375,73.416013 7.10044207,73.4331396 8.57435182,73.4184214 C8.89797814,73.4152102 9.02662296,73.4764914 9.02581726,73.8401649 C9.02393727,75.0478605 9.04058858,75.0478605 7.83229412,75.0478605 C6.60412552,75.0478605 5.37541977,75.0590999 4.14751974,75.0406352 C3.80267642,75.0355508 3.7014257,75.1364374 3.70599138,75.4829842 C3.72479125,76.9689877 3.70330568,78.4555264 3.72156841,79.9415299 C3.72586553,80.2896824 3.62139197,80.3945831 3.27628008,80.3785268 C2.69858695,80.3517665 2.11740242,80.3474848 1.53997787,80.3795972 C1.15108914,80.4012731 1.03372424,80.28995 1.03828992,79.89015 C1.0605812,78.0369942 1.048227,76.1833031 1.048227,74.3301473" id="Fill-22" fill="#465661"></path>
                    <path d="M138.933988,68.3277956 C140.77745,68.3277956 142.620643,68.336359 144.463836,68.3211056 C144.845742,68.3178943 145.02246,68.3743587 145.010912,68.8260738 C144.982444,69.960446 145.007958,69.9612488 143.85284,69.9612488 C142.834693,69.9612488 141.81574,69.9837275 140.798398,69.9505447 C140.367881,69.9363617 140.242728,70.0404595 140.245951,70.4873578 C140.267436,73.6009272 140.248636,76.7144966 140.267436,79.828066 C140.270122,80.2583728 140.167528,80.4114421 139.72224,80.3806677 C139.163078,80.3421327 138.597739,80.345344 138.038309,80.3801325 C137.640289,80.404752 137.539307,80.2795134 137.541455,79.8858684 C137.558375,76.8421435 137.550855,73.7984187 137.550855,70.7549615 C137.550855,69.9612488 137.550855,69.9612488 136.751861,69.9612488 C135.575526,69.9609812 134.399191,69.9521503 133.223125,69.9674037 C132.926625,69.9711502 132.839877,69.8844465 132.832625,69.586336 C132.802277,68.327528 132.791803,68.3277956 134.036085,68.3277956 L138.933988,68.3277956" id="Fill-23" fill="#465661"></path>
                    <path d="M96.6544252,11.2952858 C97.2533354,10.0412948 97.82136,8.84778213 98.3931446,7.65587512 C99.4958912,5.35742668 100.607232,3.0632599 101.696013,0.758121368 C101.836206,0.461616435 101.987411,0.349758075 102.319632,0.351363698 C103.702765,0.358053791 103.702228,0.346546831 104.213047,1.58474929 C105.477741,4.65068523 106.737601,7.71822679 108.014649,10.7788107 C108.177402,11.1687093 108.187071,11.3348912 107.685114,11.3038492 C107.09077,11.2671875 106.491591,11.2808352 105.895635,11.3017083 C105.620889,11.3113421 105.494124,11.2147371 105.40469,10.9607812 C105.102818,10.1052521 104.767912,9.26096229 104.467114,8.40516556 C104.372846,8.13702663 104.250378,8.02704149 103.946626,8.03266117 C102.788554,8.05353426 101.629676,8.04952021 100.471604,8.034802 C100.198738,8.03132315 100.066602,8.12204082 99.970185,8.37358832 C99.6462901,9.22108934 99.2890926,10.056013 98.9668092,10.9040492 C98.8599185,11.1847655 98.7283194,11.3212434 98.4020074,11.3035816 C97.8457998,11.2736099 97.2869065,11.2952858 96.6544252,11.2952858 L96.6544252,11.2952858 Z M102.304592,2.66024868 C101.736836,4.06222462 101.204262,5.37696175 100.656649,6.72836059 L103.816101,6.72836059 C103.31683,5.38445466 102.826959,4.06623868 102.304592,2.66024868 L102.304592,2.66024868 Z" id="Fill-24" fill="#465661"></path>
                    <path d="M162.350569,5.80994459 C162.350569,4.14785782 162.360506,2.48603865 162.34278,0.824219489 C162.33902,0.468574132 162.421471,0.348152453 162.80096,0.35082849 C165.153629,0.368490337 167.506298,0.367687525 169.858968,0.351363698 C170.223148,0.34868766 170.335679,0.435926477 170.32789,0.810304095 C170.30909,1.72470604 170.329233,1.72497365 169.430331,1.72497365 C168.025712,1.72497365 166.620825,1.73888904 165.216743,1.71587512 C164.83618,1.70972023 164.744329,1.83174753 164.756952,2.18926612 C164.783003,2.92303555 164.782734,3.6589458 164.757489,4.39298284 C164.744866,4.75772672 164.856323,4.8709231 165.22856,4.86476821 C166.562545,4.84362752 167.897336,4.86958508 169.231321,4.84844438 C169.623432,4.84202189 169.785111,4.91721854 169.768997,5.35608866 C169.7365,6.23811056 169.763894,6.23918097 168.885403,6.23918097 C167.656429,6.23918097 166.427186,6.25229355 165.19848,6.23061765 C164.84934,6.22446277 164.749432,6.32615218 164.757489,6.66868496 C164.778975,7.57773483 164.780317,8.48839032 164.756952,9.39744019 C164.748089,9.75067712 164.868677,9.83497229 165.207074,9.83176105 C166.822252,9.81543722 168.437698,9.8357751 170.052875,9.81570482 C170.421621,9.81115556 170.526095,9.91097175 170.520992,10.2799973 C170.506489,11.2950182 170.524483,11.2952858 169.513319,11.2952858 C167.336294,11.2952858 165.159,11.2800324 162.982244,11.3070604 C162.493716,11.3132153 162.323443,11.2203568 162.336334,10.6905014 C162.375546,9.06454115 162.350569,7.43697527 162.350569,5.80994459" id="Fill-25" fill="#465661"></path>
                    <path d="M190.351094,0.359659413 C192.035025,0.359659413 193.718956,0.367152318 195.402619,0.353236924 C195.712279,0.350560887 195.823736,0.413447763 195.824273,0.751431274 C195.82669,1.83014191 195.843073,1.83014191 194.776583,1.83014191 C193.847064,1.83014191 192.916739,1.84833896 191.988025,1.82104338 C191.610417,1.81007163 191.526354,1.93450737 191.528234,2.29229355 C191.5422,5.10587917 191.523937,7.92 191.547571,10.7335856 C191.5516,11.2008217 191.429132,11.3466658 190.965312,11.304652 C190.495584,11.2623706 190.016725,11.2658494 189.546191,11.3041168 C189.129908,11.3381024 189.060349,11.1727233 189.062497,10.7986133 C189.077537,8.00215435 189.057394,5.20569536 189.083177,2.40950399 C189.087474,1.92192999 188.949698,1.80311393 188.478358,1.81890255 C187.40972,1.85449385 186.338933,1.82050818 185.268952,1.83576159 C184.954189,1.84031085 184.809161,1.7932126 184.811578,1.4204406 C184.818829,0.359927017 184.799224,0.359659413 185.878336,0.359659413 L190.351094,0.359659413" id="Fill-26" fill="#465661"></path>
                    <path d="M208.232724,0.359659413 C206.863556,2.32280038 205.579525,4.17675902 204.277231,6.01787269 C204.052707,6.33551831 203.956022,6.6499527 203.961394,7.03610488 C203.979388,8.31257467 203.956559,9.58957967 203.975628,10.8660495 C203.980731,11.2147371 203.871691,11.3209758 203.527654,11.3025112 C203.020057,11.274948 202.508969,11.2741452 202.001373,11.3025112 C201.639341,11.322849 201.517948,11.2163427 201.524662,10.8411623 C201.547222,9.58235437 201.521439,8.32274361 201.540508,7.06366806 C201.546147,6.69491012 201.448657,6.3922503 201.250452,6.08691445 C200.033564,4.21181511 198.829298,2.32842006 197.565947,0.362603054 C198.542466,0.362603054 199.441905,0.362335451 200.341613,0.362603054 C200.573926,0.362603054 200.599977,0.576686039 200.681891,0.713431545 C201.436034,1.9730423 202.18024,3.23854034 202.929012,4.50136235 C203.016029,4.6485444 203.068668,4.82168401 203.240016,4.92631707 C204.03525,3.54681984 204.841227,2.17642114 205.613902,0.787825382 C205.802438,0.448771456 206.014071,0.327279362 206.395977,0.350560887 C206.965881,0.385616975 207.539546,0.359659413 208.232724,0.359659413" id="Fill-27" fill="#465661"></path>
                    <path d="M178.065379,0.359659413 C179.750116,0.359659413 181.435122,0.37089877 183.11959,0.35082849 C183.485382,0.346546831 183.592541,0.43619408 183.585827,0.80923368 C183.567295,1.8296067 183.586364,1.83014191 182.587822,1.83014191 C181.657766,1.83014191 180.726367,1.85743749 179.797922,1.81836735 C179.337325,1.79909988 179.261051,1.96019732 179.264005,2.37792675 C179.282805,5.1580619 179.259171,7.93873226 179.286834,10.7188674 C179.291936,11.2203568 179.133749,11.3399757 178.672884,11.3035816 C178.202081,11.2663846 177.724296,11.2712015 177.252688,11.3030464 C176.890387,11.3276659 176.824588,11.1855683 176.825931,10.858289 C176.837479,8.02570347 176.821902,5.19258278 176.843656,2.3599973 C176.846879,1.92192999 176.73784,1.80552237 176.298997,1.81863495 C175.176645,1.85262062 174.052681,1.81756454 172.929792,1.83763482 C172.598109,1.8435221 172.522104,1.73835383 172.521298,1.42151102 C172.518881,0.359659413 172.505452,0.359659413 173.590205,0.359659413 L178.065379,0.359659413" id="Fill-28" fill="#465661"></path>
                    <path d="M156.093703,74.3702879 C156.093703,72.5184701 156.106058,70.6666523 156.083766,68.815102 C156.078932,68.4153021 156.196566,68.3005001 156.585454,68.3200351 C157.180067,68.3500068 157.777635,68.3393026 158.373322,68.3229788 C158.659617,68.3152183 158.775908,68.3941614 158.775102,68.7027085 C158.766508,72.4759211 158.767313,76.2494013 158.774296,80.0226139 C158.774833,80.3017246 158.677074,80.3830761 158.40743,80.376386 C157.77656,80.3605974 157.144079,80.349358 156.514283,80.3795972 C156.145806,80.3972591 156.085378,80.2479362 156.087526,79.9254737 C156.100149,78.0736559 156.093703,76.2218381 156.093703,74.3702879" id="Fill-29" fill="#465661"></path>
                </g>
            </g>
        </g>
    </g>
</svg>