<svg id="Layer_1" data-name="Layer 1" xmlns="http://www.w3.org/2000/svg" viewBox="0 0 914.16 346.02"><defs><style>.cls-1{fill:#652e8e;}.cls-2{fill:#05773d;}.cls-3{fill:#e86825;}</style></defs><title>QS logo strip vector</title><polygon class="cls-1" points="154.38 209.2 140.5 224.35 121.98 201.34 134.09 191.4 154.38 209.2"/><path class="cls-1" d="M113,204.27C94,201.69,85.76,186.93,85.76,165c0-28.47,17-33.79,30.13-33.79,18.75,0,31.5,13.9,31.5,39.51a45,45,0,0,1-3,17.51l9.38,8c6.82-8.2,9.59-17.93,9.59-29.79,0-26.19-17.73-42.77-46.2-42.77C82.9,123.67,70,148.94,70,168.5c0,20.24,13.26,44.82,46.08,44.82a17.31,17.31,0,0,0,2.32-.18Z"/><path class="cls-1" d="M183.81,167.48c0-14.59.11-17.31-.12-20.36-.22-3.4-1.13-4.3-4.3-5.21a18.3,18.3,0,0,0-3.84-.34c-1.13,0-1.7-.33-1.7-1s.68-.91,2.15-.91c5.32,0,12,.23,14.93.23,2.49,0,9.17-.23,12.79-.23,1.47,0,2.15.23,2.15.91s-.57,1-1.59,1a14.28,14.28,0,0,0-2.94.34c-2.6.46-3.39,1.81-3.62,5.21-.23,3-.23,5.77-.23,20.36V181c0,14,2.72,19.45,7.59,23.3,4.41,3.51,9.16,3.85,12.55,3.85A19,19,0,0,0,231,203c5.55-5.21,5.77-13.58,5.77-23.42V167.48c0-14.59-.11-17.31-.22-20.36-.23-3.28-1-4.3-4.19-5.21a17.54,17.54,0,0,0-3.62-.34c-1.13,0-1.7-.33-1.7-1s.68-.91,2-.91c5.09,0,11.76.23,11.88.23,1.13,0,7.8-.23,11.65-.23,1.36,0,2,.23,2,.91s-.57,1-1.7,1a14.2,14.2,0,0,0-2.94.34c-2.72.46-3.4,1.81-3.62,5.21-.12,3-.23,5.77-.23,20.36v10.3c0,10.74-1.13,22.06-9.5,29-7,5.88-14.6,6.9-21,6.9-5.21,0-15.5-.23-22.74-6.56-5.09-4.41-9.05-11.54-9.05-25.46Z"/><path class="cls-1" d="M276.91,188.19c-.57,0-.68.11-.91.67l-5.31,12.9a17.47,17.47,0,0,0-1.48,5.88c0,1.7.91,2.72,4,2.72h1.48c1.24,0,1.47.45,1.47,1,0,.79-.57,1-1.59,1-3.28,0-7.92-.34-11.08-.34-1,0-6.34.34-11.54.34-1.25,0-1.81-.23-1.81-1a1,1,0,0,1,1.13-1c.9,0,2-.11,2.94-.11,4.52-.68,6.22-3.62,8.26-8.49l26-60.52c1.13-2.72,1.92-3.85,2.94-3.85,1.47,0,1.92.9,2.94,3.05,2.38,5.32,19,44.69,25.34,59.29,3.85,8.71,6.68,10,8.49,10.29a23.51,23.51,0,0,0,3.73.34c.91,0,1.36.34,1.36,1s-.57,1-4.3,1c-3.51,0-10.75,0-19.12-.23-1.81-.11-2.94-.11-2.94-.79s.22-.91,1.24-1a1.51,1.51,0,0,0,.91-2.15l-7.7-19.35a.93.93,0,0,0-1-.67Zm21.27-5.32c.45,0,.56-.23.45-.57l-9.39-24.43c-.11-.34-.23-.91-.45-.91s-.46.57-.57.91l-9.62,24.32c-.22.45,0,.68.34.68Z"/><path class="cls-1" d="M350.32,199.27c.23,7.47,1.47,9.73,3.4,10.41a16.73,16.73,0,0,0,5.2.68c1.13,0,1.7.45,1.7,1,0,.79-.91,1-2.26,1-6.45,0-11.09-.34-12.9-.34-.91,0-5.66.34-10.75.34-1.36,0-2.26-.12-2.26-1,0-.57.68-1,1.58-1a20.48,20.48,0,0,0,4.53-.45c2.6-.68,2.94-3.28,3.05-11.66l.91-57c0-1.93.68-3.29,1.69-3.29,1.25,0,2.61,1.48,4.3,3.17,1.25,1.25,16.18,16.52,30.66,30.66,6.79,6.68,20,20.25,21.5,21.61h.45l-1-42.76c-.11-5.89-1-7.58-3.39-8.49a16.6,16.6,0,0,0-5.21-.57c-1.24,0-1.58-.45-1.58-1,0-.79,1-.91,2.49-.91,5.2,0,10.52.23,12.67.23,1.13,0,4.86-.23,9.73-.23,1.36,0,2.26.12,2.26.91,0,.56-.56,1-1.7,1a10.06,10.06,0,0,0-3.05.34c-2.72.8-3.51,2.49-3.62,7.92l-1.13,60.64c0,2.15-.79,3.06-1.59,3.06a5.92,5.92,0,0,1-4.07-2c-6.22-5.77-18.67-17.65-29.07-27.72C362,173.37,351.45,161.71,349.53,160h-.34Z"/><path class="cls-1" d="M435.76,211c-1.86-.8-2.26-1.34-2.26-3.88,0-6.14.53-13.22.66-15.09s.54-2.94,1.47-2.94,1.2,1.07,1.2,1.88a21.07,21.07,0,0,0,1.07,5.87c2.54,8.42,11.35,11.22,18.7,11.22,10.15,0,16.3-6.41,16.3-14.42,0-4.95-1.21-9.89-11.63-16l-6.81-4C440.57,165.45,436,157.83,436,147.81c0-13.88,13.36-22.83,29.65-22.83a69.76,69.76,0,0,1,16.7,1.87c1.07.26,1.6.66,1.6,1.47,0,1.46-.4,4.67-.4,13.62,0,2.4-.54,3.61-1.47,3.61s-1.2-.67-1.2-2a12.88,12.88,0,0,0-3.07-7.48c-1.74-2.13-5.48-5.34-13.09-5.34-8.42,0-16,4.41-16,12.15,0,5.08,1.87,9.09,12.42,15L466,160.5c15.49,8.55,20.3,17.23,20.3,27.52,0,8.41-3.21,15.22-11.75,21.23-5.61,4-13.36,4.68-19.64,4.68C448.05,213.93,440.84,213.26,435.76,211Z"/><path class="cls-1" d="M511.35,167.48c0-14.59,0-17.31-.11-20.36-.23-3.28-1.25-4.41-3.4-5.09a12.66,12.66,0,0,0-3.62-.46c-1,0-1.58-.22-1.58-1.13,0-.56.79-.79,2.38-.79,3.73,0,10.52.23,13.34.23,2.49,0,8.94-.23,12.79-.23,1.24,0,2,.23,2,.79,0,.91-.57,1.13-1.59,1.13a14.2,14.2,0,0,0-2.94.34c-2.72.46-3.51,1.81-3.73,5.21-.23,3-.23,5.77-.23,20.36v17c0,9.28,0,17,.45,21,.34,2.61,1,4.08,4,4.53a36.67,36.67,0,0,0,5.09.34c1.13,0,1.59.57,1.59,1,0,.68-.79,1-1.93,1-6.56,0-13.35-.34-16.06-.34-2.26,0-9,.34-13,.34-1.25,0-1.92-.34-1.92-1,0-.45.34-1,1.58-1A14.52,14.52,0,0,0,508,210c2-.45,2.6-1.81,2.94-4.64.45-4,.45-11.65.45-20.93Z"/><path class="cls-1" d="M617,206c0,2.6,0,2.71-1.24,3.39-6.68,3.28-16.52,4.3-24.33,4.3-24.43,0-46-11.09-46-37.67,0-15.39,8.26-26.14,17.42-31.45,9.51-5.55,18.44-6.23,26.81-6.23a113.41,113.41,0,0,1,17.65,1.59c2,.34,5.55.9,7.92,1,1.13.11,1.36.45,1.36,1.13a130.16,130.16,0,0,0-.68,15.84c0,1.47-.56,2.15-1.36,2.15s-.9-.46-1-1.25a12.85,12.85,0,0,0-3.4-7.92c-2.94-3-10.41-7.35-21.61-7.35-5.43,0-12.33.11-19.23,5.66-5.54,4.52-9.16,11.65-9.16,23.41,0,20.71,13.35,35.75,34.62,35.75,2.6,0,4.64,0,7-1,1.47-.67,1.92-1.69,1.92-3.39v-8.82c0-4.75,0-8.37-.11-11.32-.11-3.28-1.13-4.3-4.3-5.2a17.68,17.68,0,0,0-3.85-.34c-.9,0-1.58-.45-1.58-1,0-.79.79-.9,2.15-.9,5.2,0,12.33.22,15.27.22,3.17,0,8.38-.22,11.66-.22,1.35,0,2,.11,2,.9a1.14,1.14,0,0,1-1.24,1,13.36,13.36,0,0,0-2.72.34c-2.71.45-3.73,1.81-3.84,5.2-.12,2.95-.12,6.79-.12,11.54Z"/><path class="cls-1" d="M696.42,171c.23,0,.57-.11.57-.68v-2c0-14.59-.11-18.1-.23-21.15-.22-3.28-1.13-4.3-4.3-5.21a18.3,18.3,0,0,0-3.84-.34c-1.13,0-1.7-.33-1.7-1s.68-.91,2.15-.91c5.32,0,12.33.23,14.93.23,2.38,0,8.94-.23,12.79-.23,1.47,0,2.15.23,2.15.91s-.68,1-1.81,1a17.38,17.38,0,0,0-3,.34c-2.6.46-3.39,1.81-3.62,5.21-.22,3-.22,5.77-.22,20.36v17c0,8.83,0,16.41.45,20.59.34,2.72.91,4.53,4,5a35.54,35.54,0,0,0,5.09.34c1,0,1.59.57,1.59,1,0,.68-.8,1-2,1-6.45,0-13-.34-15.73-.34-2.26,0-9.27.34-13.12.34-1.36,0-2.15-.34-2.15-1,0-.45.45-1,1.58-1a14.79,14.79,0,0,0,3.62-.34c2-.45,2.61-2.26,2.95-5.09.45-4.07.45-11.43.45-20.25v-7.35a.6.6,0,0,0-.57-.57H658.86c-.34,0-.68.11-.68.57v7.35c0,8.82.12,16.18.57,20.36.34,2.72.9,4.53,3.85,5a36.56,36.56,0,0,0,5.09.34c1.13,0,1.58.57,1.58,1,0,.68-.79,1-2,1-6.44,0-13.34-.34-16.17-.34-2.27,0-8.83.34-12.79.34-1.24,0-1.92-.34-1.92-1,0-.45.34-1,1.58-1a14.46,14.46,0,0,0,3.51-.34c2-.45,2.6-2.26,2.94-5.09.45-4.07.45-11.65.45-20.48v-17c0-14.59,0-17.31-.11-20.36-.22-3.28-1.13-4.3-4.3-5.21a18.75,18.75,0,0,0-4-.34c-1,0-1.69-.33-1.69-1s.79-.91,2.14-.91c5.32,0,11.88.23,14.6.23,2.38,0,9.28-.23,13.24-.23,1.35,0,2,.23,2,.91s-.56,1-1.81,1a15.12,15.12,0,0,0-2.83.34c-2.71.46-3.5,1.81-3.73,5.21-.23,3-.23,6.56-.23,21.15v2a.6.6,0,0,0,.68.68Z"/><path class="cls-1" d="M756.15,145.53l-14.82.34c-5.77.12-8.15.8-9.62,2.94a11.36,11.36,0,0,0-1.7,3.29c-.22.79-.45,1.24-1.13,1.24s-.9-.57-.9-1.58c0-1.59,1.92-10.86,2.15-11.66.22-1.24.56-1.81,1.13-1.81.79,0,1.81.8,4.3,1.14a93.16,93.16,0,0,0,10,.45H785.9a45,45,0,0,0,6.79-.45c1.58-.23,2.37-.46,2.71-.46.68,0,.8.57.8,2,0,2-.23,9.16-.23,11.65-.11,1-.34,1.59-.91,1.59-.79,0-1-.46-1.13-1.93l-.11-1c-.23-2.49-2.83-5.43-11.77-5.54l-12.55-.23v38.92c0,8.83.11,16.41.56,20.59.34,2.72.91,4.53,3.85,5a36.67,36.67,0,0,0,5.09.34c1.13,0,1.58.57,1.58,1,0,.68-.79,1-1.92,1-6.56,0-13.24-.34-16.06-.34-2.27,0-9.06.34-13,.34-1.24,0-1.92-.34-1.92-1,0-.45.34-1,1.59-1a13.77,13.77,0,0,0,3.5-.34c2-.45,2.61-2.26,2.94-5.09.46-4.07.46-11.65.46-20.48Z"/><g id="bottom"><path class="cls-2" d="M166.61,242.91,159,238.5c-2.51-1.51-4.93-3.17-7.4-4.75q6.44-7.86,12.7-15.84c1.72,1.09,3.39,2.24,5.15,3.27l5.28,3.07C172,230.43,169.26,236.68,166.61,242.91Z"/><path class="cls-2" d="M192.38,255l-8-3.34c-2.66-1.18-5.28-2.45-7.92-3.67q5.25-8.7,10.36-17.46c1.87.85,3.71,1.75,5.59,2.56l5.69,2.35Q195.14,245.15,192.38,255Z"/><path class="cls-2" d="M219.26,263.78l-8.34-2.37-8.26-2.68q4.16-9.27,8.18-18.59l5.89,1.89c2,.59,4,1.12,6,1.68Q220.91,253.73,219.26,263.78Z"/><path class="cls-2" d="M246.81,269.67c-5.69-.88-11.34-2.05-17-3.26q3.13-9.63,6.15-19.34c4.07.79,8.11,1.71,12.21,2.31Q247.43,259.52,246.81,269.67Z"/><path class="cls-2" d="M274.74,272.87c-1.44-.1-2.87-.17-4.3-.29l-4.3-.41c-2.86-.28-5.73-.53-8.58-.95q2.19-9.9,4.23-19.82c2.06.28,4.13.41,6.2.62s4.13.44,6.2.53Q274.4,262.71,274.74,272.87Z"/><path class="cls-2" d="M302.81,273.49c-5.75.08-11.49.15-17.24-.09q1.26-10.06,2.38-20.15c4.15.18,8.31,0,12.47,0Q301.55,263.42,302.81,273.49Z"/><path class="cls-2" d="M330.82,271.52l-8.57.89-8.6.62q.32-10.15.53-20.3l6.22-.46,6.19-.66Q328.65,261.57,330.82,271.52Z"/><path class="cls-2" d="M358.56,267c-2.82.6-5.63,1.22-8.47,1.68s-5.66,1.05-8.51,1.45c-.4-6.75-.85-13.48-1.34-20.23l6.13-1.1,3.06-.55,3-.65Q355.45,257.26,358.56,267Z"/><path class="cls-2" d="M385.79,259.7c-2.73,1-5.52,1.7-8.29,2.52l-4.16,1.2-4.19,1.06q-1.57-10-3.29-20c2-.48,4-1.09,6-1.67s4-1.14,6-1.77Q381.7,250.39,385.79,259.7Z"/><path class="cls-2" d="M412.2,249.61c-2.65,1.17-5.34,2.27-8,3.4l-2,.84-2,.77-4.06,1.52q-2.62-9.81-5.37-19.57c3.89-1.39,7.64-3.07,11.44-4.67C405.46,237.83,408.82,243.76,412.2,249.61Z"/><path class="cls-2" d="M437.35,236.4l-7.55,4.41-7.72,4.06q-3.74-9.45-7.61-18.82l5.44-2.88,5.29-3.12Q431.19,228.27,437.35,236.4Z"/></g><g id="top"><path class="cls-3" d="M779.48,96.15l7.63,4.34c2.52,1.48,5,3.12,7.45,4.68q-6.36,7.92-12.55,16c-1.73-1.07-3.41-2.21-5.17-3.22l-5.32-3C774.23,108.68,776.89,102.41,779.48,96.15Z"/><path class="cls-3" d="M753.59,84.35l8.08,3.27c2.67,1.15,5.31,2.4,8,3.59q-5.18,8.75-10.19,17.56c-1.88-.83-3.73-1.71-5.62-2.51L748.11,104Q750.93,94.19,753.59,84.35Z"/><path class="cls-3" d="M726.63,75.8,735,78.09l8.29,2.6q-4.08,9.3-8,18.66l-5.9-1.83c-2-.57-4-1.08-6-1.62Q725.09,85.86,726.63,75.8Z"/><path class="cls-3" d="M699,70.18c5.7.82,11.36,1.94,17,3.1q-3,9.66-6,19.39c-4.08-.75-8.12-1.62-12.23-2.19Q698.5,80.34,699,70.18Z"/><path class="cls-3" d="M671.06,67.26c1.44.08,2.87.13,4.31.24l4.3.38c2.86.24,5.73.47,8.58.85q-2.09,9.93-4,19.87c-2.06-.26-4.14-.37-6.2-.57s-4.14-.4-6.22-.46Q671.5,77.41,671.06,67.26Z"/><path class="cls-3" d="M643,66.91c5.74-.13,11.49-.26,17.23-.08Q659.08,76.91,658,87c-4.15-.14-8.31,0-12.46.08Q644.35,77,643,66.91Z"/><path class="cls-3" d="M615,69.16l8.57-1,8.59-.71q-.23,10.16-.33,20.31l-6.21.52-6.19.72Q617.28,79.08,615,69.16Z"/><path class="cls-3" d="M587.3,74c2.81-.63,5.62-1.29,8.45-1.77s5.66-1.1,8.5-1.53c.47,6.75,1,13.46,1.53,20.22l-6.11,1.15-3.06.58-3,.69Q590.5,83.65,587.3,74Z"/><path class="cls-3" d="M560.15,81.51c2.72-1,5.5-1.76,8.26-2.6l4.14-1.24,4.19-1.1q1.66,10,3.48,20c-2,.5-4,1.13-6,1.73s-4,1.18-5.93,1.83Q564.31,90.79,560.15,81.51Z"/><path class="cls-3" d="M533.84,91.86c2.64-1.2,5.31-2.32,8-3.48l2-.86,2-.79,4-1.56q2.71,9.78,5.56,19.51c-3.87,1.43-7.61,3.15-11.39,4.79C540.69,103.57,537.28,97.68,533.84,91.86Z"/><path class="cls-3" d="M508.82,105.31l7.5-4.48L524,96.69q3.82,9.42,7.79,18.75l-5.41,2.94-5.26,3.16Q515.06,113.38,508.82,105.31Z"/></g></svg>